<?xml version="1.0" encoding="UTF-8"?>
<svg version="1.1" viewBox="0 0 1600 1600" width="1280" height="1280" xmlns="http://www.w3.org/2000/svg">
<path transform="translate(0)" d="m0 0h1600v1600h-1600v-1600z" fill="#FAFDFF"/>
<path transform="translate(822 149)" d="m0 0c3.23-0.00218 6.47-0.0204 9.7-0.0393 12.6-0.0348 25 0.535 37.5 2.22 1.19 0.157 2.38 0.313 3.6 0.475 3.14 0.436 6.27 0.907 9.4 1.4 1.1 0.174 2.21 0.347 3.35 0.526 44.1 7.07 85.9 22.5 125 44.6 1.2 0.677 2.41 1.35 3.61 2.03 5.99 3.42 11.7 7.13 17.4 11 2.84 1.9 5.73 3.73 8.63 5.54 7.13 4.51 13.4 9.48 19.3 15.4 0.887 0.516 1.77 1.03 2.69 1.56 2.31 1.44 2.31 1.44 3.31 3.5 1.41 2.73 3.19 2.83 6 3.94 1.71 1.62 3.37 3.3 5 5 1.2 1.05 2.41 2.09 3.62 3.12 7.9 6.86 16.2 14.4 22.4 22.9v2c0.99 0.33 1.98 0.66 3 1 1.62 1.76 1.62 1.76 3.44 4.12 2.43 3.13 4.86 6.25 7.37 9.31 7.25 8.87 13.9 18 20.2 27.6 0.792 1.18 0.792 1.18 1.6 2.38 23.4 34.9 40.9 74 50.7 115 0.445 1.82 0.911 3.64 1.39 5.45 2.02 7.66 3.37 15.4 4.51 23.2 0.302 2.06 0.621 4.12 0.941 6.18 4.07 27 4.1 54.1 4.11 81.3 0.00454 5.16 0.0226 10.3 0.0398 15.5 0.0487 15.3 0.0802 30.6 0.101 45.8 0.0165 12 0.0392 23.9 0.083 35.9 0.0218 6.13 0.0298 12.3 0.0276 18.4 0.00166 3.79 0.0157 7.58 0.0332 11.4 0.00562 1.76 0.00606 3.52 0.00106 5.29-0.00609 2.4 6e-3 4.79 0.0228 7.19-0.00621 0.703-0.0124 1.41-0.0188 2.13-0.00768 2.13-0.00768 2.13 0.404 5.03 2.97 1.98 3.87 2.29 7.24 2.56 0.82 0.0748 1.64 0.15 2.49 0.227l2.59 0.211c5.55 0.458 10.4 1.05 15.7 3 1.45 0.3 2.91 0.572 4.38 0.812 18.1 3.51 34.5 10.8 49.6 21.2 0.873 0.565 1.75 1.13 2.64 1.71 31.2 20.7 54.1 56.3 61.6 92.7 0.113 0.699 0.226 1.4 0.342 2.12 0.268 1.61 0.57 3.21 0.908 4.8 1.98 9.97 1.81 19.9 1.82 30 0.00932 2.05 0.0195 4.1 0.0304 6.15 0.0273 5.57 0.0425 11.1 0.0554 16.7 0.0158 5.95 0.0426 11.9 0.068 17.8 0.0416 10.1 0.076 20.2 0.105 30.3 0.0403 13.8 0.0934 27.6 0.149 41.5 0.369 92.1 0.447 184-0.0149 276-0.056 11.2-0.105 22.3-0.146 33.5-0.0299 8.12-0.0671 16.2-0.11 24.3-0.0247 4.75-0.0467 9.49-0.0606 14.2-0.101 33.1-0.101 33.1-1.27 48.8-0.0737 1-0.147 2-0.223 3.04-0.808 9.37-3.04 18.2-5.9 27.1-0.366 1.18-0.732 2.37-1.11 3.59-3.18 9.91-7.6 18.8-12.9 27.7-0.888 1.51-1.76 3.02-2.63 4.54-5.13 8.56-11.7 15.8-18.4 23.2-0.813 0.91-1.63 1.82-2.46 2.76-10.8 11.4-24.7 20-38.5 27.2-0.985 0.531-1.97 1.06-2.98 1.61-26.1 13.1-55.8 14.6-84.4 14.5-2.16 6.76e-4 -4.31 0.00165-6.47 0.0029-4.5 0.00147-9-6.43e-4 -13.5-0.00534-5.72-0.00568-11.4-0.00242-17.2 0.00357-4.45 0.00365-8.9 0.00245-13.3-1.28e-4 -2.11-6.59e-4 -4.21 1.22e-4 -6.32 0.00248-2.97 0.00259-5.93-0.0014-8.9-0.0069-1.26 0.00304-1.26 0.00304-2.54 0.00613-4.77-0.0161-9.52-0.192-14.3-0.496-10.5-0.661-21.1-0.781-31.6-0.767-1.91-0.00116-3.81-0.00275-5.72-0.00473-5.19-0.00414-10.4-0.00213-15.6 9.86e-4 -5.62 0.00228-11.2-0.00124-16.9-0.00398-11-0.00444-22-0.00349-33.1-5.87e-4 -9.02 0.00227-18 0.00256-27 0.00148-1.29-1.53e-4 -2.58-3.06e-4 -3.91-4.64e-4 -2.63-3.2e-4 -5.25-6.44e-4 -7.88-9.73e-4 -23.9-0.00277-47.9 9.88e-5 -71.8 0.00534-21.6 0.00469-43.1 0.00437-64.7-4.61e-4 -24.4-0.00545-48.8-0.00741-73.2-0.00439-2.64 3.18e-4 -5.29 6.33e-4 -7.93 9.43e-4 -1.3 1.54e-4 -2.6 3.09e-4 -3.94 4.68e-4 -8.89 8.41e-4 -17.8-5.64e-4 -26.7-0.00295-59.3-0.0146-119 0.203-178 0.787-1.75 0.0171-1.75 0.0171-3.54 0.0346-5.42 0.0531-10.8 0.108-16.3 0.165-10.3 0.106-20.5 0.172-30.8 0.181-1.53 0.00252-1.53 0.00252-3.08 0.0051-9.33-0.00162-18.6-0.288-28-0.787-0.812-0.0426-1.62-0.0851-2.46-0.129-12-0.653-23.6-1.73-35.2-5.12-1.25-0.348-2.5-0.696-3.79-1.05-18.2-5.56-34.5-14.6-49.4-26.5-1.56-1.22-3.19-2.35-4.84-3.45v-2l-1.75-0.688c-2.83-1.65-4.22-3.74-6.25-6.31l-2.94-2.44c-3.21-2.68-5.55-5.24-8.06-8.56v-2h-2c-12-14.1-20-32.6-25.2-50.1-0.234-0.755-0.468-1.51-0.709-2.29-6.49-22.9-5.59-47.1-5.7-70.7-0.0177-3.35-0.0408-6.69-0.0657-10-0.523-70.4-0.423-141-0.401-211 0.0045-14.7 0.00367-29.3-9.07e-4 -44-0.00541-17.4-0.00743-34.7-0.00439-52.1 3.18e-4 -1.87 6.33e-4 -3.73 9.43e-4 -5.6 1.54e-4 -0.917 3.09e-4 -1.83 4.68e-4 -2.78 8.43e-4 -6.28-5.7e-4 -12.6-0.00295-18.9-0.0111-32.5-0.00422-64.9 0.464-97.4 0.0365-2.56 0.0705-5.11 0.102-7.67 0.581-45.5 8.6-83.5 38.6-119l1.78-2.15c25.2-29.8 64.1-43 102-47.9 0.847-0.111 1.69-0.223 2.57-0.338 0.754-0.095 1.51-0.19 2.28-0.288 1.76-0.16 1.76-0.16 2.74-1.33 0.094-1.64 0.117-3.29 0.114-4.94-7.05e-5 -1.07-1.41e-4 -2.14-2.14e-4 -3.24-0.00517-1.19-0.0103-2.37-0.0157-3.6-0.00146-1.24-0.00292-2.49-0.00443-3.77-0.00382-2.72-0.00947-5.44-0.0181-8.16-0.0136-4.35-0.0194-8.7-0.0241-13.1-0.013-10.9-0.0371-21.7-0.0614-32.6-0.0235-10.6-0.0429-21.1-0.0521-31.7-6.51e-4 -0.738-0.0013-1.48-0.00197-2.24-0.0147-19.4 0.0739-38.8 0.506-58.1 0.0299-1.37 0.0299-1.37 0.0603-2.77 0.347-15.3 1.13-30.6 2.5-45.8 0.134-1.5 0.134-1.5 0.271-3.04 2.33-25.6 7.59-50.6 15.7-75 0.242-0.74 0.484-1.48 0.733-2.24 14-42.7 35.5-83.6 64.3-118 2-2.41 3.87-4.87 5.68-7.43 2.21-3.12 4.5-5.56 7.27-8.19 3.6-3.51 7.1-7.06 10.4-10.9 10.3-11.9 22.4-21.7 34.7-31.5 1.2-0.968 2.41-1.94 3.6-2.92 9.71-7.92 20.2-14.5 30.9-21.1 2.1-1.31 4.19-2.62 6.28-3.95 12.6-7.89 25.7-14.5 39.2-20.6 0.765-0.347 1.53-0.694 2.32-1.05 13-5.86 26.2-10.7 39.8-15 1.96-0.619 3.92-1.25 5.88-1.9 9.34-3.01 18.8-5.09 28.4-7.09 0.834-0.175 1.67-0.35 2.53-0.53 13.3-2.78 26.6-5.11 40.1-6.41 0.802-0.0921 1.6-0.184 2.43-0.279 10.1-1.04 20.2-0.907 30.4-0.906z" fill="#007EFC"/>
<path transform="translate(954,340)" d="m0 0c0.573 0.41 1.15 0.82 1.74 1.24 8.69 6.27 16.6 13.3 24.3 20.8 0.558 0.536 1.12 1.07 1.69 1.62 9.57 9.24 18.1 18.9 25.6 29.9 1.09 1.59 2.2 3.17 3.34 4.73 21.6 29.7 32.6 65.6 37.3 102 0.0986 0.714 0.197 1.43 0.299 2.16 0.75 5.92 0.785 11.7 0.701 17.7-0.0255 1.85-0.0465 3.7-0.0625 5.55-0.0174 1.21-0.0174 1.21-0.0352 2.44 0.0097 2.32 0.0097 2.32 1.1 5.13 0.0963 2.19 0.131 4.38 0.134 6.57 0.00227 0.671 0.00453 1.34 0.00687 2.03 0.00634 2.25 0.00551 4.5 0.00469 6.76 0.00299 1.61 0.00639 3.23 0.0102 4.84 0.00884 4.38 0.0112 8.77 0.0118 13.2 9.49e-4 3.66 0.00463 7.31 0.00817 11 0.00815 8.62 0.0106 17.2 0.00987 25.9-6.01e-4 8.91 0.00996 17.8 0.0257 26.7 0.0131 7.64 0.0184 15.3 0.0178 22.9-2.56e-4 4.57 0.00263 9.13 0.0132 13.7 0.00964 4.29 0.00979 8.58 0.00248 12.9-0.00105 1.58 0.00134 3.16 0.00736 4.73 0.00766 2.15 0.00311 4.29-0.00463 6.44 5.45e-4 1.2 0.00109 2.41 0.00165 3.65-0.249 2.8-0.249 2.8-2.25 4.8-2.11 0.243-2.11 0.243-4.76 0.234-1 0.0013-2.01 0.00261-3.05 0.00395-1.11-0.00876-2.21-0.0175-3.35-0.0266-1.16-0.00131-2.33-0.00263-3.52-0.00398-3.86-0.00652-7.73-0.027-11.6-0.047-2.68-0.00627-5.37-0.0117-8.05-0.0158-6.36-0.0114-12.7-0.0321-19.1-0.0569-11.4-0.0442-22.7-0.0776-34.1-0.1-4.62-0.0097-9.24-0.0285-13.9-0.0492-2.44-0.00683-4.88-0.0134-7.32-0.0198-1.09-0.00674-2.18-0.0135-3.3-0.0204-1.03-0.00152-2.06-0.00303-3.12-0.00459-0.88-0.00352-1.76-0.00704-2.67-0.0107-2.81 0.102-5.54 0.335-8.33 0.616-6.11 0.576-12.2 0.641-18.3 0.628-1.2 0.00156-2.4 0.00312-3.64 0.00473-3.3 0.00328-6.6 0.00213-9.9-9.86e-4 -3.57-0.00228-7.14 0.00124-10.7 0.00398-6.99 0.00444-14 0.00349-21 5.87e-4 -5.69-0.00226-11.4-0.00256-17.1-0.00148-0.811 1.53e-4 -1.62 3.06e-4 -2.46 4.64e-4 -1.65 3.2e-4 -3.3 6.44e-4 -4.95 9.73e-4 -15.4 0.00285-30.9-4.22e-4 -46.3-0.0058-13.2-0.00446-26.4-0.0037-39.7 9.19e-4 -15.4 0.00537-30.8 0.00745-46.1 0.00439-1.65-3.19e-4 -3.29-6.33e-4 -4.94-9.43e-4 -0.809-1.54e-4 -1.62-3.09e-4 -2.45-4.68e-4 -5.67-8.58e-4 -11.3 5.83e-4 -17 0.00295-6.93 0.00283-13.9 2e-3 -20.8-0.00328-3.52-0.0026-7.05-0.0037-10.6-3.51e-4 -12.3 0.00883-24.5 0.0065-36.8-0.453-0.826-0.022-1.65-0.044-2.5-0.0666-2.25-0.106-2.25-0.106-5.8-0.613-2.38-3.57-2.28-6.08-2.25-10.2-0.00241-0.738-0.00483-1.48-0.00732-2.24-0.00565-2.48 0.00304-4.96 0.0116-7.44-0.00107-1.78-0.00301-3.55-0.00575-5.33-0.00486-4.83 0.00282-9.66 0.013-14.5 0.00878-5.06 0.00702-10.1 0.00664-15.2 9.37e-4 -8.5 0.00963-17 0.0233-25.5 0.0157-9.81 0.021-19.6 0.0203-29.4-6.77e-4 -10.5 0.00628-20.9 0.0154-31.4 0.00213-3.01 0.00284-6.01 0.00324-9.02 0.00101-4.74 0.00716-9.48 0.0172-14.2 0.0029-1.73 0.00415-3.47 0.00357-5.2-0.00184-8.84 0.146-17.6 1.15-26.4 0.17-1.81 0.337-3.62 0.5-5.44 0.205-2.22 0.429-4.29 0.992-6.44 0.502-2.09 0.733-4.07 0.914-6.21 4.06-38.3 25.4-78.4 50.6-107 0.486-0.552 0.972-1.1 1.47-1.67 3.11-3.51 6.29-6.93 9.53-10.3 0.797-0.849 1.59-1.7 2.41-2.57 65.8-68.3 174-82.1 288-23.4z" fill="#FAFDFF"/>
<path transform="translate(1269,921)" d="m0 0h4v2h6v-2c5.75 0.75 5.75 0.75 8 3 0.124 1.15 0.247 2.31 0.375 3.5 0.206 1.15 0.412 2.31 0.625 3.5 1.94 1.51 1.94 1.51 4 2v4c1.65 0.66 3.3 1.32 5 2v6h6c3.46 9.67 3.49 17.9 2 28h-2c0.217 1.22 0.217 1.22 0.438 2.46 1.22 7.26 1.83 14.2 1.56 21.5h2v4c-0.99 0.495-0.99 0.495-2 1-0.472 1.85-0.472 1.85-0.625 4.06-0.0773 0.822-0.155 1.64-0.234 2.49-0.19 2.65-0.19 2.65-0.0156 6.13 0.127 6.21-1.71 12.3-3.12 18.3h2c1.71 3.43 1.01 7.28 0.938 11.1 0.0538 2.54 0.319 4.54 1.06 6.95h2c-0.155 1.29-0.309 2.57-0.469 3.89-0.639 5.75-0.89 11.5-1.14 17.3-0.0374 0.797-0.0748 1.59-0.113 2.42-0.0303 0.707-0.0606 1.41-0.0918 2.14-0.189 2.28-0.189 2.28-0.697 5.18-3.98 25 0.31 53.3 4.51 78.1 1.32-0.66 2.64-1.32 4-2 2.05 3.45 3.06 5.32 2.69 9.38-0.34 1.3-0.34 1.3-0.688 2.62-1.32-1.32-2.64-2.64-4-4 0.0464 1.15 0.0928 2.31 0.141 3.5 0.275 10.2-0.371 20-1.95 30.1-0.165 1.1-0.331 2.19-0.501 3.32-0.171 1.02-0.342 2.04-0.519 3.09-0.152 0.91-0.304 1.82-0.46 2.76-0.708 2.2-0.708 2.2-3.71 4.2-0.585 2.89-0.585 2.89-0.688 6.12-0.0986 1.64-0.0986 1.64-0.199 3.32-0.0374 0.843-0.0748 1.69-0.113 2.55 0.66 0.33 1.32 0.66 2 1v9h2v4h2v4h2v10h-2v6h2v24c2.97 0.33 5.94 0.66 9 1-0.0116-1.16-0.0232-2.32-0.0352-3.51-0.00938-1.54-0.0185-3.08-0.0273-4.62-0.00838-0.761-0.0168-1.52-0.0254-2.3-0.0185-4.28 0.0509-8.38 1.09-12.6 0.66-0.33 1.32-0.66 2-1 2.87-6.02 3.6-12.4 4-19h-6l-2-10h4v-3c0.99-0.33 1.98-0.66 3-1 0.33-0.66 0.66-1.32 1-2h4v-6c0.557 0.186 1.11 0.371 1.69 0.562 2.71 0.513 4.66 0.102 7.31-0.562-0.66-2.64-1.32-5.28-2-8h1c0.99-3.3 1.98-6.6 3-10h1c0.33 3.63 0.66 7.26 1 11 0.29-4.62 0.574-9.24 0.854-13.9 0.0957-1.57 0.193-3.13 0.291-4.7 0.528-8.43 0.979-16.8 0.792-25.2 0.0625-2.2 0.0625-2.2 1.06-4.2h2c0.047 23.8 0.0821 47.6 0.104 71.4 0.0103 11.1 0.0242 22.1 0.0473 33.2 0.0201 9.65 0.0329 19.3 0.0373 28.9 0.00258 5.1 0.00855 10.2 0.0233 15.3 0.164 59.2 0.164 59.2-7.21 82.2-0.549 1.78-0.549 1.78-1.11 3.59-3.17 9.88-7.58 18.7-12.8 27.6-0.991 1.68-1.97 3.37-2.95 5.05-0.589 0.98-1.18 1.96-1.79 2.97-0.519 0.871-1.04 1.74-1.57 2.64-2.04 2.47-3.71 3.18-6.74 4.11v-2c-0.763 0.186-1.53 0.371-2.31 0.562-2.69 0.438-2.69 0.438-5.69-0.562-0.33 2.64-0.66 5.28-1 8-1.65 0.33-3.3 0.66-5 1-1.33 3-1.33 3 0 6-2.71 1.24-4.62 2.01-7.62 1.94-2.42-0.209-2.42-0.209-3.75 1.44-2.49 2.49-5.25 2.86-8.62 3.62h-7c-1.34 1.66-2.68 3.33-4 5-4.4 3.65-8.56 3.32-14 3-0.33-2.31-0.66-4.62-1-7-3.48-0.696-3.48-0.696-7-1v2h-9c0.0464-0.797 0.0928-1.59 0.141-2.41 0.223-6.56 0.297-10.6-4.14-15.6-0.66 0.99-1.32 1.98-2 3-1.5-1.31-1.5-1.31-3-3v-3h-2v-2c-0.99 0.66-1.98 1.32-3 2-2.04 0.195-2.04 0.195-4.19 0.125-1.26-0.0412-2.52-0.0825-3.81-0.125 3.06-2.62 3.73-3 8-3v-2h-7c0.33-0.99 0.66-1.98 1-3 6.16-2.28 6.16-2.28 10-1 0.412-0.495 0.825-0.99 1.25-1.5 1.75-1.5 1.75-1.5 5.75-1.5v2h-5v2c1.65 0.33 3.3 0.66 5 1 0.33-2.64 0.66-5.28 1-8h-6v2c-0.66-0.33-1.32-0.66-2-1 0.33-0.99 0.66-1.98 1-3 2.07-0.73 2.07-0.73 4.56-1.19 1.24-0.238 1.24-0.238 2.5-0.48 0.638-0.11 1.28-0.219 1.93-0.332v-4c3.3-0.33 6.6-0.66 10-1 2.38-11.5 2.38-11.5 2-23-2.34-2.54-2.34-2.54-5-4v-2h-2c-0.33-0.66-0.66-1.32-1-2-4.36-1.85-8.38-2.29-13-2.46-0.645-0.178-1.29-0.356-1.95-0.539-0.253-0.652-0.505-1.3-0.766-1.98-0.611-1-0.611-1-1.23-2.02-2.75-0.532-5.23-0.821-8-1-1.57-0.171-3.15-0.35-4.72-0.535-1.59-0.176-3.19-0.352-4.78-0.527-0.822-0.0909-1.64-0.182-2.49-0.275-2-0.221-4.01-0.442-6.01-0.662v2c-1.14 0.402-1.14 0.402-2.31 0.812-2.59 1.15-3.78 2.18-5.69 4.19h-2v-3c-3.12 1.6-4.77 2.61-6.56 5.69-0.474 0.763-0.949 1.53-1.44 2.31h-4v2h-2v7c-1.32-0.33-2.64-0.66-4-1 0.33 2.64 0.66 5.28 1 8 0.99 0.33 1.98 0.66 3 1 2.96 7.64 2.18 15.9 2 24-1.65-0.33-3.3-0.66-5-1v3c0.66 0.33 1.32 0.66 2 1-1.32 0.66-2.64 1.32-4 2v2c0.99-0.33 1.98-0.66 3-1 0.33-0.66 0.66-1.32 1-2 1.98 0.33 3.96 0.66 6 1v3c-2.64 0.33-5.28 0.66-8 1h2c-0.288 1.34-0.632 2.68-1 4-0.186 0.722-0.371 1.44-0.562 2.19-1.82 2.3-2.72 2.21-5.56 2.56-1.92 0.124-1.92 0.124-3.88 0.25 0.165 0.619 0.33 1.24 0.5 1.88 0.775 3.29 0.19 5.85-0.5 9.12-0.99 0.33-1.98 0.66-3 1v2c-0.99-0.33-1.98-0.66-3-1v-3c-0.66-0.33-1.32-0.66-2-1v5c1.32 0.66 2.64 1.32 4 2v4c1.65 0.66 3.3 1.32 5 2v1h-5v2h-2v-2c-1.94 0.114-3.88 0.242-5.81 0.375-1.08 0.0696-2.16 0.139-3.27 0.211-3.1 0.226-3.1 0.226-5.92 2.41-1.35-2.71-1.07-5.01-1-8-1.32 0.99-2.64 1.98-4 3v-4c-1.98-0.33-3.96-0.66-6-1v2h-11v2c-7.18 0.318-12.6 0.34-19-3-1.32-0.373-2.65-0.73-4-1v-4c-0.578-0.144-1.15-0.289-1.75-0.438-2.08-0.521-4.17-1.04-6.25-1.56v-2h4v-6h-4v-2h12v-6h4v-2h12c-0.33-1.32-0.66-2.64-1-4 0.33-0.99 0.66-1.98 1-3 2.97-0.33 5.94-0.66 9-1-0.33-2.97-0.66-5.94-1-9 3.21-1.61 6.44-1.06 10-1v-4h7v-6h2v-4h2c0.33-1.98 0.66-3.96 1-6h5c0.0374-0.629 0.0748-1.26 0.113-1.91 0.453-5.9 1.57-10.6 3.89-16.1h5v-4c3.62-1.32 6.1-2 10-2-0.33-2.97-0.66-5.94-1-9 2.31 0.33 4.62 0.66 7 1v-8h2c0.33 1.98 0.66 3.96 1 6 1.32 0.33 2.64 0.66 4 1-0.99 0.99-1.98 1.98-3 3 4.52 0.0765 8.59 0.102 13-1v-3c0.99-0.33 1.98-0.66 3-1-0.99-0.33-1.98-0.66-3-1v-3c1.98-0.33 3.96-0.66 6-1 0.33-1.32 0.66-2.64 1-4h4v-2c1.32 0.33 2.64 0.66 4 1v-3c1.32-0.66 2.64-1.32 4-2v-3h2c-1.32-1.65-2.64-3.3-4-5 2.31-0.33 4.62-0.66 7-1v-5h4c0.33-3.3 0.66-6.6 1-10h4v-4c1.65-0.33 3.3-0.66 5-1h-3c0.33-1.32 0.66-2.64 1-4-1.32 0.33-2.64 0.66-4 1-0.33-0.99-0.66-1.98-1-3h3v-3h-3v-2h-2v-3c1.32 0.33 2.64 0.66 4 1v-3h-4c0-3 0-3 2-5-0.308-1.67-0.644-3.34-1-5 0.227-0.681 0.454-1.36 0.688-2.06 0.103-0.639 0.206-1.28 0.312-1.94-1.85-2.27-1.85-2.27-4-4-0.66 0.33-1.32 0.66-2 1-0.34-1.56-0.671-3.12-1-4.69-0.186-0.87-0.371-1.74-0.562-2.64-0.427-2.61-0.514-5.03-0.438-7.68h2c-0.0722-0.632-0.144-1.26-0.219-1.91-2.08-20.1-2.08-20.1 0.219-28.1 0.66-0.33 1.32-0.66 2-1 0.727-1.98 1.4-3.98 2-6h4c-0.458-3.47-0.891-6.67-2-10h-3v-12h5v-4c-1.32 0.33-2.64 0.66-4 1-0.33-1.65-0.66-3.3-1-5h-4v-13c1.32-0.66 2.64-1.32 4-2-0.33-1.32-0.66-2.64-1-4-0.66 0.99-1.32 1.98-2 3-1.02-4.4-1.08-6.95 1-11 0.33-0.33 0.66-0.66 1-1 0.0721-1.69 0.0839-3.38 0.0625-5.06-0.00902-0.919-0.018-1.84-0.0273-2.79-0.0116-0.71-0.0232-1.42-0.0352-2.15-1.32-0.66-2.64-1.32-4-2 0.0412-1.11 0.0825-2.23 0.125-3.38 0.286-3.67 0.286-3.67-2.12-5.62v-4h-2c-0.66-0.99-1.32-1.98-2-3h-2v-3h3v-2c-0.66-0.33-1.32-0.66-2-1h2c0.33-6.6 0.66-13.2 1-20h2v3h3v-3h-2c-1.86-4.7-2.25-8.88-2.12-13.9 0.00902-0.688 0.018-1.38 0.0273-2.09 0.0233-1.68 0.0592-3.36 0.0977-5.04h2v-3c-0.99-0.33-1.98-0.66-3-1 3-1 3-1 5-1 0.8-3.29 1.1-4.71 0-8h-2c0.206-0.598 0.412-1.2 0.625-1.81 0.682-2.47 0.682-2.47-1.62-5.19-0.938-1.88-0.938-1.88-1-4 1.64-1.69 3.31-3.35 5-5 0.872-2.68 0.872-2.68 1-5-0.66-0.33-1.32-0.66-2-1v-6h2c-0.66-0.33-1.32-0.66-2-1 0.33-1.32 0.66-2.64 1-4 4 0 4 0 7 1 1-3.58 1-3.58 0-7h3c-0.99-1.65-1.98-3.3-3-5h3v-3c2 0 2 0 3.62 1.5 0.454 0.495 0.908 0.99 1.38 1.5v-2c-0.66-0.33-1.32-0.66-2-1 0.66-0.33 1.32-0.66 2-1-0.66-0.33-1.32-0.66-2-1v-3c2.5-1.69 2.5-1.69 5-3 0.33 0.66 0.66 1.32 1 2-0.99 0.99-1.98 1.98-3 3h2v-2c0.66-0.33 1.32-0.66 2-1 0.658-3.03 0.658-3.03 1-6h2c0.33-1.32 0.66-2.64 1-4 1.65 0.33 3.3 0.66 5 1-0.66-0.99-1.32-1.98-2-3h-3c-0.125-3.37-0.125-3.37 0-7 0.66-0.66 1.32-1.32 2-2-0.66-0.33-1.32-0.66-2-1v-2c1.32-0.33 2.64-0.66 4-1 0.027 1.46 0.0464 2.92 0.0625 4.38 0.0116 0.812 0.0232 1.62 0.0352 2.46-0.0977 2.16-0.0977 2.16-1.1 4.16h2c-0.0116-0.699-0.0232-1.4-0.0352-2.12-0.00902-0.91-0.018-1.82-0.0273-2.76-0.0116-0.905-0.0232-1.81-0.0352-2.74 0.0977-2.38 0.0977-2.38 1.1-4.38h2c-0.0309-1.42-0.0309-1.42-0.0625-2.88 0.0625-3.12 0.0625-3.12 1.06-5.12-0.66-0.33-1.32-0.66-2-1 3-1 3-1 6 0v-3c-0.577 0.206-1.15 0.413-1.75 0.625-2.77 0.462-3.9-0.196-6.25-1.62 3-2 3-2 5.19-1.62 0.598 0.206 1.2 0.413 1.81 0.625v-6h3c0.337-1.6 0.669-3.21 1-4.81 0.186-0.893 0.371-1.79 0.562-2.71 0.524-2.55 0.524-2.55 0.438-5.48v-2c0.66-0.33 1.32-0.66 2-1h-4v-3h2v-2c-0.99 0.33-1.98 0.66-3 1v-7h-3c-1-7.75-1-7.75-1-10h4v5c1.11-2.79 1.11-2.79 1-5h2c-0.351-0.949-0.701-1.9-1.06-2.88-0.938-3.12-0.938-3.12 0.0625-5.12h2v-2c4.75-1.12 4.75-1.12 7 0 3.16-1.24 3.16-1.24 5-4h-5c-0.825-2.83-1.08-5.17-0.879-8.11 0.0483-0.754 0.0967-1.51 0.146-2.29 0.0561-0.777 0.112-1.55 0.17-2.36 0.0522-0.793 0.104-1.59 0.158-2.4 0.129-1.95 0.266-3.9 0.404-5.85z" fill="#007CFB"/>
<path transform="translate(878 972)" d="m0 0c0.763 0.825 1.53 1.65 2.31 2.5 0.518 0.49 1.04 0.98 1.57 1.48 13 13.2 17.7 33.8 17.7 51.7-0.311 17.2-7.14 32.8-18.3 45.8-1.15 1.45-1.15 1.45-2.33 2.94-2.6 3.11-5.56 5.63-8.8 8.06-0.561 0.427-1.12 0.854-1.7 1.29-13 9.71-13 9.71-18.2 9.71-0.00331 0.667-0.00662 1.33-0.01 2.02-0.0813 16.3-0.173 32.5-0.277 48.8-0.05 7.86-0.0965 15.7-0.134 23.6-0.033 6.85-0.0729 13.7-0.121 20.6-0.0252 3.63-0.047 7.25-0.0606 10.9-0.0153 4.06-0.046 8.11-0.0778 12.2-0.00216 1.19-0.00432 2.39-0.00655 3.61-0.0974 9.72-0.532 17.5-7.53 24.7-0.882 0.851-0.882 0.851-1.78 1.72-0.763 0.763-1.53 1.53-2.31 2.31-4.9 3.08-9.72 5.04-15.6 4.34-9.88-2.48-16.8-7.86-22.3-16.5-2.66-6.78-1.97-14.4-1.91-21.6 0.00628-1.23 0.0126-2.47 0.019-3.74 0.0138-2.67 0.0294-5.34 0.0476-8.01 0.028-4.22 0.0449-8.45 0.0595-12.7 0.00514-1.45 0.0103-2.9 0.0155-4.35 0.00259-0.725 0.00517-1.45 0.00784-2.2 0.036-9.82 0.0816-19.6 0.148-29.5 0.0445-6.64 0.0747-13.3 0.0889-19.9 0.00807-3.51 0.0236-7.02 0.0567-10.5 0.0368-3.91 0.0426-7.82 0.0459-11.7 0.016-1.16 0.0319-2.32 0.0483-3.52-0.00608-1.6-0.00608-1.6-0.0123-3.22 0.00499-0.924 0.00997-1.85 0.0151-2.8-0.756-3.79-3.14-5.52-6.22-7.65-0.573-0.328-1.15-0.656-1.74-0.994-0.648-0.382-1.3-0.763-1.96-1.16-0.682-0.401-1.36-0.801-2.07-1.21-17.9-10.9-30.4-25.7-35.5-46.4-0.205-0.741-0.41-1.48-0.621-2.25-4.18-17.1-1.3-36 7.37-51.3 11.6-18.6 28-31.8 49.3-37.8 26.6-5.72 51.1 2.62 70.6 20.8z" fill="#FAFDFF"/>
<path transform="translate(867,837)" d="m0 0h2v2h2v2h4c0.495 0.99 0.495 0.99 1 2 2.02 0.652 2.02 0.652 4 1 0.495 2.48 0.495 2.48 1 5h3.43 14.6c1.24-0.33 2.48-0.66 3.75-1 5.4-1.28 10.6-0.983 16.1-0.68 3.85-0.394 4.57-1.57 7.14-4.32 2.36-0.391 2.36-0.391 4.75-0.25 0.799 0.0361 1.6 0.0722 2.42 0.109 0.603 0.0464 1.21 0.0928 1.83 0.141v-3c5.53-0.194 9.76 0.252 15 2-0.66 0.33-1.32 0.66-2 1v4l2 1v7h-5c1.65 0.66 3.3 1.32 5 2v3h-5c0.495 2.48 0.495 2.48 1 5l4 1c-1.32 0.33-2.64 0.66-4 1v3l4 1c-1.32 0.33-2.64 0.66-4 1v10c-1.32 0.33-2.64 0.66-4 1-0.182 0.961-0.182 0.961-0.367 1.94-1.97 10.2-1.97 10.2-3.63 15.1l-2 1c0.66 0.33 1.32 0.66 2 1 0.33 0.99 0.66 1.98 1 3 1.49 0.495 1.49 0.495 3 1v3h4c0.66 1.32 1.32 2.64 2 4h6c0.227 0.949 0.454 1.9 0.688 2.88 1.99 3.38 1.99 3.38 5.3 3.86 2.32 0.297 4.65 0.545 6.98 0.742 3.32 0.568 4.02 0.949 6.03 3.52 0.432 1.9 0.432 1.9 0.512 4.01 0.0354 0.757 0.0709 1.51 0.107 2.29 0.0226 0.786 0.0451 1.57 0.0684 2.38 0.0342 0.797 0.0683 1.59 0.104 2.42 0.0824 1.97 0.147 3.93 0.209 5.9h2v11h-2c-0.0825 1.11-0.165 2.23-0.25 3.38-0.75 3.62-0.75 3.62-2.62 5-0.701 0.206-1.4 0.413-2.12 0.625-0.99 0.33-1.98 0.66-3 1v4c0.99 0.33 1.98 0.66 3 1-1.32 0.33-2.64 0.66-4 1-0.66 3.3-1.32 6.6-2 10h-3v2h-3c0.33 0.66 0.66 1.32 1 2 0.0402 2.33 0.0432 4.67 0 7 1.32 0.33 2.64 0.66 4 1v3h3v5h2v5c0.99 0.33 1.98 0.66 3 1v3h2v2h2c0.33 1.98 0.66 3.96 1 6h-5v5c0.66 0.33 1.32 0.66 2 1-0.0206 1.24-0.0412 2.48-0.0625 3.75-0.00517 2.91 0.132 5.46 1.06 8.25h3v2h-3v18h6v-2h3c0.33 3.3 0.66 6.6 1 10h6v2c1.32 0.33 2.64 0.66 4 1 0.967 2.58 1.28 4.32 0.211 6.9-0.731 1.37-1.47 2.73-2.22 4.09-1.29 2.61-1.7 5.12-1.99 8h-2v2h-2c-0.217 1.42-0.217 1.42-0.438 2.88-0.562 3.12-0.562 3.12-1.56 5.12h-2v6c0.66 0.33 1.32 0.66 2 1-0.66 0.66-1.32 1.32-2 2h-3v2h-2v2h-2c-0.33 1.32-0.66 2.64-1 4h-5v-2h2v-5c1.32-0.33 2.64-0.66 4-1v-3h5c-0.254-2.46-0.528-4.92-0.812-7.38-0.0703-0.699-0.141-1.4-0.213-2.12-0.222-1.85-0.591-3.68-0.975-5.51-0.99-0.66-1.98-1.32-3-2v-4h-6v4c0.66 0.33 1.32 0.66 2 1h-2v4h-3c-0.186 1.95-0.186 1.95-0.375 3.94-0.211 2.21-0.211 2.21-0.625 4.06-0.66 0.33-1.32 0.66-2 1 0.0412 1.09 0.0825 2.19 0.125 3.31-0.125 3.69-0.125 3.69-2.12 6.69-3.62 0.688-3.62 0.688-7 1v4c-0.577-0.186-1.15-0.371-1.75-0.562-2.22-0.607-2.22-0.607-4.25 0.125-2.63 0.576-3.69-0.299-6-1.56-0.0545-1.42-0.093-2.83-0.125-4.25-0.0232-0.789-0.0464-1.58-0.0703-2.39 0.212-2.57 0.909-4.15 2.2-6.36-0.722 0.103-1.44 0.206-2.19 0.312-4.02-0.447-5.25-2.28-7.81-5.31-3.09-4.05-3.3-6.95-3-12h-5c-0.0142-0.831-0.0284-1.66-0.043-2.52-0.0477-1.09-0.0954-2.17-0.145-3.29-0.0348-1.08-0.0696-2.16-0.105-3.27-0.426-3.1-0.426-3.1-3.11-4.73-0.856-0.392-1.71-0.784-2.59-1.19-0.763-0.392-1.53-0.784-2.31-1.19-0.557-0.268-1.11-0.536-1.69-0.812h3c0.33-1.32 0.66-2.64 1-4 1.98-0.33 3.96-0.66 6-1v-2h2v-3h8c0.13-1.03 0.13-1.03 0.262-2.08 1.15-7.38 1.15-7.38 4.05-10 2.75-0.895 4.82-1.12 7.69-0.875v-6h-2v-2h4c-0.33-1.98-0.66-3.96-1-6-0.99-0.33-1.98-0.66-3-1v-13h-2v-6h-2l-2 2c-2-5.62-2-5.62-2-9-1.32-0.33-2.64-0.66-4-1v-10c-0.99 0.33-1.98 0.66-3 1v4h-2v-3h-2c-0.33-3.3-0.66-6.6-1-10h2v-4h4c0.269-4.65 0.269-4.65-1-9v4h-9v4h-3c-0.33-3.63-0.66-7.26-1-11h2v-4c2.64-0.33 5.28-0.66 8-1v-7h-3c-0.66 1.98-1.32 3.96-2 6-1.96 0.0539-3.92 0.0927-5.88 0.125-1.64 0.0348-1.64 0.0348-3.3 0.0703-2.82-0.195-2.82-0.195-4.82-2.2 0.66-0.33 1.32-0.66 2-1-1.49-0.99-1.49-0.99-3-2-0.188-3.12-0.188-3.12 0-6-0.66-0.33-1.32-0.66-2-1h2v-4h-2v-6h-2v-2h-2c-0.33-3.3-0.66-6.6-1-10-1.49-0.495-1.49-0.495-3-1v4h-2c-0.289-0.763-0.577-1.53-0.875-2.31-1.09-2.84-1.09-2.84-3.12-5.69 0.66-0.66 1.32-1.32 2-2-1.32-1.32-2.64-2.64-4-4 2.59-3.89 4.56-3.91 9-5 3.05-0.657 3.05-0.657 4.06-2.75 0.309-0.743 0.619-1.49 0.938-2.25 0.413-0.825 0.825-1.65 1.25-2.5 1.03-2.46 1.03-2.46-0.125-4.62-0.371-0.619-0.743-1.24-1.12-1.88v-3h-2c-1.48-2.96-1.06-5.74-1-9h-6v-2h-2v-2h-9c0.0412 0.701 0.0825 1.4 0.125 2.12-0.143 3.28-1.03 5.79-2.12 8.88-0.361 1.66-0.705 3.33-1 5h-4c-0.33 1.32-0.66 2.64-1 4h-4c-0.66 0.99-1.32 1.98-2 3-4.95 2.27-9.55 2.24-14.9 2.12-0.784-0.00902-1.57-0.018-2.38-0.0273-1.92-0.0234-3.83-0.0592-5.75-0.0977v-3c-0.88-0.00258-1.76-0.00516-2.67-0.00781-9.16-0.305-9.16-0.305-12.3-2.15-2.38-2.62-3.04-4.96-3.59-8.41 0.656-4.01 1.93-5.42 4.56-8.44 1.26-3.18 1.26-3.18 2-6-0.66-0.33-1.32-0.66-2-1 1.7-0.681 1.7-0.681 3.44-1.38 3.61-1.2 3.61-1.2 4.56-3.62h6c-0.0522-0.922-0.0522-0.922-0.105-1.86-0.0271-0.808-0.0541-1.62-0.082-2.45-0.0522-1.2-0.0522-1.2-0.105-2.43 0.293-2.26 0.293-2.26 1.57-4.04 2.75-1.95 5.46-1.4 8.72-1.22v-4h-6v-1h9v-2h-2c-0.887-3.1-1-5.74-1-9 0.71-0.049 1.42-0.098 2.15-0.148 0.919-0.0748 1.84-0.15 2.79-0.227 0.917-0.0696 1.83-0.139 2.78-0.211 0.754-0.137 1.51-0.273 2.29-0.414 0.33-0.66 0.66-1.32 1-2z" fill="#007CFB"/>
<path transform="translate(707,846)" d="m0 0h4v3c2.64-0.66 5.28-1.32 8-2v2c0.743-0.33 1.49-0.66 2.25-1 3.4-1.24 6.37-1 9.96-0.965 8.94 0.0708 8.94 0.0708 17.8-1.04 0.495 2.48 0.495 2.48 1 5 0.784-0.186 1.57-0.371 2.38-0.562 2.62-0.438 2.62-0.438 4.62 0.562v2h4v-5c1.14 0.0116 2.29 0.0232 3.46 0.0352 1.49 0.00938 2.98 0.0185 4.47 0.0273 0.755 0.00838 1.51 0.0168 2.29 0.0254 1.93 0.00863 3.85-0.0356 5.78-0.0879 0.33-0.33 0.66-0.66 1-1 1.75-0.126 3.5-0.176 5.25-0.188 0.954-0.0142 1.91-0.0284 2.89-0.043 3.01 0.243 5.11 1.04 7.86 2.23 3.39 0.585 6.56 1 10 1 2.12 0.375 2.12 0.375 4 1 1.29 2.58 1.13 4.49 1.12 7.38 0.00258 0.956 0.00516 1.91 0.00781 2.9-0.117 2.41-0.446 4.43-1.13 6.73 3.28-0.752 3.28-0.752 5-4 0.706 7.11 1.05 14.1 0.965 21.2 0.0318 2.5 0.24 4.86 0.598 7.33 0.438 3.44 0.438 3.44-0.562 6.44 0.99 0.66 1.98 1.32 3 2v3c0.66 0.33 1.32 0.66 2 1-0.66 1.32-1.32 2.64-2 4 0.66 0.33 1.32 0.66 2 1-0.804 0.743-1.61 1.49-2.44 2.25-2.88 2.64-2.88 2.64-3.56 6.75-4.95 0.33-9.9 0.66-15 1v-9c-1.32-0.33-2.64-0.66-4-1v-7h-6l-2-4h-7c0.66-1.32 1.32-2.64 2-4-1.18-0.433-1.18-0.433-2.38-0.875-2.62-1.12-2.62-1.12-4.62-3.12-0.66 0.99-1.32 1.98-2 3-0.33-1.32-0.66-2.64-1-4-1.32-0.33-2.64-0.66-4-1 1.32-0.33 2.64-0.66 4-1v-3c-1.32-0.33-2.64-0.66-4-1 1.32-0.33 2.64-0.66 4-1v-7h-3v6c-0.66-0.33-1.32-0.66-2-1 0.33-2.31 0.66-4.62 1-7h-2v2h-2v6c-0.66-0.33-1.32-0.66-2-1v-6c-0.33 1.32-0.66 2.64-1 4h-3v2c-0.922 0.0599-0.922 0.0599-1.86 0.121-2.65 0.342-4.72 0.733-7.14 1.88-1.7 2.87-2.42 5.74-3 9 0.66 0.33 1.32 0.66 2 1l-6.15 0.586c-0.915 0.205-0.915 0.205-1.85 0.414l-1 2h-2v6h10l1 4c0.897 0.155 0.897 0.155 1.81 0.312 2.19 0.688 2.19 0.688 3.48 2.28 1.68 1.7 1.68 1.7 4.34 1.3 0.968-0.211 1.94-0.423 2.93-0.641 0.971-0.201 1.94-0.402 2.94-0.609 2.47-0.541 2.47-0.541 4.5-1.64l2 4c0.99-0.33 1.98-0.66 3-1v7c0.66 0.33 1.32 0.66 2 1-0.33 1.32-0.66 2.64-1 4 2.97 0.99 2.97 0.99 6 2 0.33-0.66 0.66-1.32 1-2 1 1 1 1 1.06 3.56-0.0206 0.804-0.0412 1.61-0.0625 2.44h7c0.33 1.98 0.66 3.96 1 6h4v2h-4c1.84 2.05 1.84 2.05 4 3v3c-0.928-0.0206-1.86-0.0412-2.81-0.0625-3.21-0.0952-3.21-0.0952-6.19 1.06-0.733 2.02-0.733 2.02-1 4-0.33-0.66-0.66-1.32-1-2-1.55 0.0309-1.55 0.0309-3.12 0.0625-3.43-0.0553-6.52-0.408-9.88-1.06-0.99 1.32-1.98 2.64-3 4-0.812-0.416-0.812-0.416-1.64-0.84-2.66-0.452-2.66-0.452-5.16 2.15-0.997 1.03-1.98 2.07-2.95 3.13-0.507 0.529-1.01 1.06-1.54 1.6-1.25 1.31-2.48 2.63-3.71 3.96 1.17-0.936 1.17-0.936 2.36-1.89 2.19-1.74 4.4-3.44 6.64-5.11 0.66 0.33 1.32 0.66 2 1-0.66 0.66-1.32 1.32-2 2 1.49 0.99 1.49 0.99 3 2-5.27 6.64-5.27 6.64-9.43 7.5-2.26 0-4.35-0.0812-6.57-0.5-1-1-1-1-1.1-4.16 0.0116-1.29 0.0232-2.58 0.0352-3.9 0.00902-1.29 0.018-2.58 0.0273-3.91 0.0116-0.999 0.0232-2 0.0352-3.03 1.32-0.66 2.64-1.32 4-2-1.65-0.33-3.3-0.66-5-1v4c-1.6 0.249-3.21 0.474-4.81 0.688-0.893 0.128-1.79 0.255-2.71 0.387-2.48-0.0742-2.48-0.0742-4.3-1.55-0.388-0.501-0.776-1-1.18-1.52-0.33 0.66-0.66 1.32-1 2-2.12 0.0808-4.25 0.139-6.38 0.188-1.18 0.0348-2.37 0.0696-3.59 0.105-1-0.0967-2.01-0.193-3.04-0.293-0.66-0.99-1.32-1.98-2-3-2.58-0.25-2.58-0.25-5 0 0.165-0.639 0.33-1.28 0.5-1.94 0.539-1.87 0.539-1.87 0.5-3.06h-3c-1.04-3.38-1.08-6.48-1-10-0.495 1.49-0.495 1.49-1 3h-4v-4h-4v-4h-2v-2h-3c-0.66 0.66-1.32 1.32-2 2h-4c-0.247 0.784-0.495 1.57-0.75 2.38-1.25 2.62-1.25 2.62-3.06 3.94-2.5 0.786-4.58 0.832-7.19 0.688 0.33 0.66 0.66 1.32 1 2 0.0402 2.33 0.0432 4.67 0 7 2.97 0.33 5.94 0.66 9 1v-4c2.31 0.33 4.62 0.66 7 1v2c1.32 0.33 2.64 0.66 4 1-0.951 1.17-1.91 2.34-2.88 3.5-0.534 0.65-1.07 1.3-1.62 1.97-0.498 0.505-0.995 1.01-1.51 1.53h-2c-0.155 0.897-0.155 0.897-0.312 1.81-0.789 2.51-1.86 3.36-3.69 5.19-0.714 2.1-0.714 2.1-1 4-0.619 0.0838-1.24 0.168-1.88 0.254-2.26 0.545-2.26 0.545-3.25 2.52-0.289 0.713-0.577 1.43-0.875 2.16-1.45 3.58-2.57 4.41-6 6.06-1.29 3.04-1.29 3.04-2 6h-11c0.124 1.55 0.124 1.55 0.25 3.12-0.291 4.51-1.58 6.32-4.25 9.88-0.33 0.99-0.66 1.98-1 3h-5c-0.144 0.578-0.289 1.15-0.438 1.75-0.521 2.08-1.04 4.17-1.56 6.25h-7v-3h-3c0.75-4.75 0.75-4.75 3-7 2.62-0.125 2.62-0.125 5 0-0.0206-0.804-0.0412-1.61-0.0625-2.44 0.0625-2.56 0.0625-2.56 1.06-3.56 1.67-0.0406 3.33-0.0427 5 0v-2h2c0.103-0.639 0.206-1.28 0.312-1.94 0.227-0.681 0.454-1.36 0.688-2.06 0.99-0.33 1.98-0.66 3-1 1.29-7.72 1.29-7.72-1-15l1-1c-0.66-0.33-1.32-0.66-2-1v-2h-2c-1.62-1.38-1.62-1.38-3-3v-2h-2v-4h-11c-0.66-1.65-1.32-3.3-2-5 0.495-0.99 0.495-0.99 1-2-0.33-0.99-0.66-1.98-1-3 2.36-2.36 3.78-2.49 7-3-0.99-1.65-1.98-3.3-3-5h2c-0.66-1.65-1.32-3.3-2-5h2v-4h2c-0.0928-1.08-0.0928-1.08-0.188-2.19 0.224-3.37 1.47-4.95 3.19-7.81-0.0412-0.846-0.0825-1.69-0.125-2.56 0.0619-1.21 0.0619-1.21 0.125-2.44 0.742-0.577 1.49-1.15 2.25-1.75 2.9-2.37 3.43-3.5 4.75-6.88 0.961-2.41 0.961-2.41 2-4.38 1.65-0.707 3.32-1.38 5-2 1.38-3.54 1.38-3.54 2-7 2.48-0.495 2.48-0.495 5-1-0.33-1.32-0.66-2.64-1-4h-4v-23c1.32-0.33 2.64-0.66 4-1v-3h7v-2c5.92-4.18 11.2-5.16 18.3-5.01 4.59 0.0131 9.2-0.324 13.7-0.992l1-1z" fill="#007CFB"/>
<path transform="translate(899,1395)" d="m0 0c5.44 0.495 5.44 0.495 11 1v4h5v7h4c0.194 1.48 0.38 2.96 0.562 4.44 0.104 0.824 0.209 1.65 0.316 2.5 0.04 0.682 0.0799 1.36 0.121 2.07-1.58 1.58-3.38 1.35-5.56 1.56-1.24 0.126-1.24 0.126-2.5 0.254-0.638 0.0606-1.28 0.121-1.93 0.184-0.33 1.65-0.66 3.3-1 5h-13c-0.33 0.99-0.66 1.98-1 3 0.33 0.66 0.66 1.32 1 2 2.02 0.652 2.02 0.652 4 1 1.12 3.75 1.12 3.75 0 6 1.32-0.33 2.64-0.66 4-1v2h7v-2h13v1c-1.13 0.124-2.27 0.247-3.44 0.375-1.18 0.206-2.35 0.412-3.56 0.625-0.33 0.66-0.66 1.32-1 2-3.88 1.32-6.88 2-11 2v-2h-12v4c-2.97 0.495-2.97 0.495-6 1v2h-6v3h-10v6c0.99 0.33 1.98 0.66 3 1h-3v4h3v2c-2.97-0.495-2.97-0.495-6-1v6c2.97 0.66 5.94 1.32 9 2v2h2c0.0272 1.58 0.0465 3.17 0.0625 4.75 0.0116 0.882 0.0232 1.76 0.0352 2.67-0.0913 2.41-0.214 4.34-1.1 6.58-0.99 0.33-1.98 0.66-3 1-0.33 0.99-0.66 1.98-1 3-0.99 0.495-0.99 0.495-2 1 0.615-0.0105 1.23-0.0209 1.86-0.0317 2.8-0.0416 5.59-0.0676 8.39-0.0933 0.968-0.0168 1.94-0.0335 2.93-0.0508 0.935-0.00645 1.87-0.0129 2.83-0.0195 0.859-0.0105 1.72-0.0209 2.6-0.0317 2.56 0.244 4.18 0.937 6.38 2.23v-2c1.49-0.99 1.49-0.99 3-2v-2h9v3c4.21 0.8 8.18 1.12 12.5 1.11 1.26-7.55e-5 2.52-1.51e-4 3.82-2.29e-4 1.36-0.00511 2.72-0.0103 4.08-0.0156 1.4-0.00187 2.81-0.00329 4.21-0.00429 3.68-0.0038 7.36-0.0136 11-0.0247 3.76-0.0103 7.52-0.0148 11.3-0.0198 7.37-0.0107 14.7-0.0277 22.1-0.0488 0.33 0.66 0.66 1.32 1 2l-1 1c5.37 0.144 10.7 0.286 16.1 0.427 1.82 0.048 3.65 0.0965 5.47 0.146 2.64 0.0707 5.27 0.14 7.91 0.208 0.801 0.0219 1.6 0.0437 2.43 0.0663 4.99 0.128 9.97 0.159 15 0.111 2.46 0.0479 4.71 0.522 7.12 1.04 4.65 0.188 4.65 0.188 9.19-0.625 2.49-0.514 3.7 0.341 5.81 1.62-0.33 0.66-0.66 1.32-1 2-4.08 0.029-8.17 0.0468-12.2 0.0625-1.74 0.0126-1.74 0.0126-3.51 0.0254-1.12 0.00322-2.23 0.00645-3.38 0.00977-1.54 0.00786-1.54 0.00786-3.11 0.0159-2.75-0.114-2.75-0.114-4.67-0.614-3.54-0.852-7.16-0.621-10.8-0.598-1.11 0.00151-1.11 0.00151-2.25 0.00305-2.77 0.00522-5.53 0.0192-8.3 0.0321-6.19 0.0206-12.4 0.0412-18.8 0.0625 19.3 0.495 19.3 0.495 39 1v1c-46.2 0.771-92.4 1.15-139 1.1-8.33-0.0074-16.7-0.00867-25-0.0098-14.8-0.00215-29.7-0.0087-44.5-0.0183-14.3-0.00928-28.7-0.0163-43-0.0205-1.34-3.94e-4 -1.34-3.94e-4 -2.71-7.96e-4 -4.49-0.00131-8.99-0.00257-13.5-0.00381-36.9-0.0102-73.7-0.0278-111-0.0503-0.33-1.32-0.66-2.64-1-4 1.81-0.0561 1.81-0.0561 3.66-0.113 1.61-0.0657 3.23-0.132 4.84-0.199 0.791-0.0226 1.58-0.0451 2.4-0.0684 5.6-0.253 9.94-1.41 15.1-3.62-1.98-0.33-3.96-0.66-6-1v-1c10.7-1.03 21.1-0.963 31.9-0.562 1.57 0.0534 3.15 0.106 4.72 0.158 3.8 0.127 7.6 0.263 11.4 0.404v2c-5.44-0.495-5.44-0.495-11-1v2c10.1 0.129 20-0.235 30-1-5.28-0.33-10.6-0.66-16-1v-1h29l-1 2c4.08 0.272 4.08 0.272 7.86-0.996 2.67-1.25 4.62-1.23 7.56-1.2 1.02 0.00645 2.05 0.0129 3.11 0.0195 1.6 0.0251 1.6 0.0251 3.22 0.0508 1.08 0.00902 2.16 0.018 3.27 0.0273 2.66 0.0235 5.32 0.0564 7.98 0.0977v-2c-0.557 0.0838-1.11 0.168-1.69 0.254-5.37 0.717-9.97 0.621-15.3-0.254 0.495-1.48 0.495-1.48 1-3 5.28 0.33 10.6 0.66 16 1 0.33-1.65 0.66-3.3 1-5h4c0.33-1.65 0.66-3.3 1-5h5v-6c-2.97 0.495-2.97 0.495-6 1 0.33 1.32 0.66 2.64 1 4h-7v-3h-3c0.33-1.32 0.66-2.64 1-4 0.66 0.33 1.32 0.66 2 1v-2h-3v-3h-2v-2c-1.65 0.33-3.3 0.66-5 1v-6h-2v-6h-4v-2h-8c-0.33-0.66-0.66-1.32-1-2-5.05-3.22-9.39-3.46-15.2-3.56-1.6-0.0345-3.2-0.0771-4.79-0.129-0.7-0.0123-1.4-0.0247-2.12-0.0374-1.9-0.271-1.9-0.271-4.9-2.27v-2h3v-4h2v-6c4.72-0.652 9.22-1.12 14-1 0.66-2.64 1.32-5.28 2-8h2v3c0.99-0.99 1.98-1.98 3-3h-7c0.99-2.47 0.99-2.47 2-5h3c0.33 0.33 0.66 0.66 1 1 0.99-0.495 0.99-0.495 2-1 2-0.04 4-0.0435 6 0-2.64-0.33-5.28-0.66-8-1v-3c2.1-0.054 4.21-0.0928 6.31-0.125 1.76-0.0348 1.76-0.0348 3.55-0.0703 3.14 0.195 3.14 0.195 6.14 2.2v2h2v-2h4c0.33-0.66 0.66-1.32 1-2h3v4c0.33-1.32 0.66-2.64 1-4 0.99 0.33 1.98 0.66 3 1v1h5c0.33-0.66 0.66-1.32 1-2 0.33 0.66 0.66 1.32 1 2h2v2c-3.48 1.16-5.46 0.708-9 0v3c1.09-0.206 2.19-0.412 3.31-0.625 3.69-0.375 3.69-0.375 6.69 1.62h3c0.33-0.66 0.66-1.32 1-2 1.98-0.717 3.98-1.38 6-2 0.99-0.495 0.99-0.495 2-1l2 2c0.66 0.33 1.32 0.66 2 1v2c1.94-0.276 1.94-0.276 4-1 0.99-1.48 0.99-1.48 2-3h2c0.33 1.98 0.66 3.96 1 6 2.08-0.142 4.17-0.288 6.25-0.438 1.16-0.0812 2.32-0.162 3.52-0.246 2.54-0.249 4.79-0.598 7.23-1.32-0.33 0.66-0.66 1.32-1 2h11c0.33 1.32 0.66 2.64 1 4 5.61 0.33 11.2 0.66 17 1v3c0.949 0.124 1.9 0.247 2.88 0.375 3.12 0.625 3.12 0.625 5.12 2.62-0.33 0.66-0.66 1.32-1 2h6c0.33-1.98 0.66-3.96 1-6h3c0.33 1.32 0.66 2.64 1 4 0.33-2.31 0.66-4.62 1-7 1.65 0.33 3.3 0.66 5 1-1.84-2.97-1.84-2.97-4-5h4c-0.0619-0.908-0.124-1.82-0.188-2.75 0.188-3.25 0.188-3.25 3.19-7.25 0.33 3.96 0.66 7.92 1 12-0.99 0.33-1.98 0.66-3 1v2h4c-0.0116-0.748-0.0232-1.5-0.0352-2.27-0.00902-0.985-0.018-1.97-0.0273-2.98-0.0116-0.975-0.0232-1.95-0.0352-2.95 0.0857-2.45 0.391-4.46 1.1-6.8h2v4c0.949-0.186 1.9-0.371 2.88-0.562 3.12-0.438 3.12-0.438 5.12 0.562 0.33-0.99 0.66-1.98 1-3h4v-3c-0.66-0.66-1.32-1.32-2-2 0.66-0.66 1.32-1.32 2-2-0.33-0.99-0.66-1.98-1-3 0.66-0.66 1.32-1.32 2-2v-4z" fill="#007CFB"/>
<path transform="translate(822 149)" d="m0 0c3.23-0.00218 6.47-0.0204 9.7-0.0393 12.6-0.0348 25 0.535 37.5 2.22 1.19 0.157 2.38 0.313 3.6 0.475 3.14 0.436 6.27 0.907 9.4 1.4 1.1 0.174 2.21 0.347 3.35 0.526 43 6.91 84.6 21.6 122 43.3 1.44 0.814 2.9 1.6 4.38 2.35 4.68 2.42 4.68 2.42 5.62 4.98-0.0245 0.678-0.049 1.36-0.0742 2.05 0.103 1.28 0.206 2.56 0.312 3.88 1.65 1.53 1.65 1.53 4 2 1.07 0.371 2.14 0.743 3.25 1.12 0.908 0.289 1.82 0.577 2.75 0.875v3h-5c0.33 0.66 0.66 1.32 1 2-0.33 0.99-0.66 1.98-1 3-5.3-0.862-9.99-2.92-14.9-4.94-3.15-1.28-3.15-1.28-7.06-1.06-0.66-0.186-1.32-0.371-2-0.562-2.35-0.513-3.73-0.12-6 0.562h-2v1c-8.16 0.157-8.16 0.157-11-1-2-3-2-3-2-6-1.11 0.0928-1.11 0.0928-2.25 0.188-3.28-0.223-4.28-1.11-6.75-3.19-0.722-0.33-1.44-0.66-2.19-1-1.81-1-1.81-1-2.81-4-2-1.21-2-1.21-4-2 0.33-0.66 0.66-1.32 1-2-0.892-2.12-0.892-2.12-2-4h-3c-0.66-0.99-1.32-1.98-2-3-2.08-0.938-2.08-0.938-4.44-1.56-3.05-0.89-4.86-1.63-7.56-3.44v-3c-1.17-0.098-2.34-0.196-3.55-0.297-9.01-0.83-17.1-1.92-25.4-5.7v-2c-2.71-0.648-5.42-1.29-8.12-1.94-1.14-0.274-1.14-0.274-2.3-0.553-8.63-2.14-8.63-2.14-17.4-2.07-1.36 0.186-2.72 0.371-4.12 0.562 4.95 0.33 9.9 0.66 15 1v2c-5.26 1.07-10.3 1.19-15.7 1.19-0.918-8.06e-4 -1.84-0.00161-2.78-0.00244-12.6-0.111-25.2-1.36-37.5-4.19v-2c-0.66-0.33-1.32-0.66-2-1 1.65-0.33 3.3-0.66 5-1-0.99-0.33-1.98-0.66-3-1v-2c-0.619-0.309-1.24-0.619-1.88-0.938-4.12-2.06-4.12-2.06-5.12-3.06-1.49 0.495-1.49 0.495-3 1v-2h-3v2c-1.4-0.0174-1.4-0.0174-2.82-0.0352-11.5-0.0815-23-0.0777-34.2 3.04-0.66 0.66-1.32 1.32-2 2-2.06 0.598-2.06 0.598-4.44 1.06-2.62 0.523-5.02 1.09-7.56 1.94-0.33-0.66-0.66-1.32-1-2-2.37-0.93-3.77-1.05-6.28-0.523-2.91 0.56-5.57 0.622-8.54 0.586-0.976-0.00902-1.95-0.018-2.96-0.0273-1.1-0.0174-1.1-0.0174-2.23-0.0352 0.33-0.99 0.66-1.98 1-3 1.32-0.33 2.64-0.66 4-1-3.3-0.33-6.6-0.66-10-1 1.65 0.33 3.3 0.66 5 1v2h-6v2h-8v-2c0.66-0.33 1.32-0.66 2-1-1.65 0.33-3.3 0.66-5 1-0.33 1.32-0.66 2.64-1 4l-4 1v2c0.763-0.206 1.53-0.412 2.31-0.625 2.69-0.375 2.69-0.375 5.69 1.62 0 3.9-0.0147 5.72-2 9-3.62 1.31-3.62 1.31-7 2v3h-11v-4h-5c-0.33 1.32-0.66 2.64-1 4-7.75 0.125-7.75 0.125-10-1 0.33-1.32 0.66-2.64 1-4-0.66-0.33-1.32-0.66-2-1-0.99 0.33-1.98 0.66-3 1v16c-4.45 0.495-4.45 0.495-9 1 0.0309 1.45 0.0309 1.45 0.0625 2.94-0.0625 3.06-0.0625 3.06-1.06 4.06-2.61 0.265-5.2 0.469-7.81 0.625-0.725 0.0516-1.45 0.103-2.2 0.156-3.51 0.218-6.64 0.396-9.99-0.781v-3h4v-2h-4c-0.33-0.66-0.66-1.32-1-2h-2v3c-0.99 0.33-1.98 0.66-3 1-0.66-0.33-1.32-0.66-2-1-0.165 0.619-0.33 1.24-0.5 1.88-2.4 3.4-5.5 3.35-9.5 4.12-0.33 1.32-0.66 2.64-1 4-1.32-0.33-2.64-0.66-4-1-0.33 0.99-0.66 1.98-1 3-2.06 1.19-2.06 1.19-4 2 0.66 0.33 1.32 0.66 2 1v2c-3.94 3.49-7.99 6.33-13 8v2c-0.71 0.182-1.42 0.364-2.15 0.551-0.919 0.251-1.84 0.503-2.79 0.762-0.917 0.244-1.83 0.487-2.78 0.738-0.754 0.313-1.51 0.626-2.29 0.949-0.495 1.49-0.495 1.49-1 3-2.66 1.99-5.61 4-9 4v2l-3 1c-0.124 0.598-0.247 1.2-0.375 1.81-0.943 3.3-2.79 4.38-5.62 6.19-2.81 0.25-2.81 0.25-5 0-0.495 1.98-0.495 1.98-1 4-3.47 0.495-3.47 0.495-7 1v2.31c-1 2.69-1 2.69-2.85 3.69-2.04 0.747-4.06 1.42-6.15 2v2h-6c-0.0412 0.577-0.0825 1.15-0.125 1.75-1.31 3.37-3.88 4.38-6.88 6.25-0.33 0.66-0.66 1.32-1 2h-2v2l-3 3c-0.33 0.99-0.66 1.98-1 3-1.94 2.19-1.94 2.19-4 4h-2v2c-1.42 0.433-1.42 0.433-2.88 0.875-3.18 0.893-3.18 0.893-5.12 3.12-1.33 0.667-2.67 1.33-4 2l-2 2c-3.46 1.13-6.35 2-10 2-0.33 1.65-0.66 3.3-1 5-0.99 0.33-1.98 0.66-3 1-0.33 1.98-0.66 3.96-1 6h7v1c-1.11 0.0825-2.23 0.165-3.38 0.25-1.2 0.248-2.39 0.495-3.62 0.75-1.09 1.93-1.09 1.93-2 4-3.12 1.25-3.12 1.25-6 2-0.33-0.99-0.66-1.98-1-3 1.32-0.33 2.64-0.66 4-1-0.33-0.99-0.66-1.98-1-3 0.938-2.69 0.938-2.69 2-5-0.66-0.33-1.32-0.66-2-1 1.57-5.2 4.88-8.8 8.31-12.9 4.89-5.86 4.89-5.86 9.46-12 2.2-3.1 4.48-5.53 7.23-8.15 3.6-3.51 7.1-7.06 10.4-10.9 10.3-11.9 22.4-21.7 34.7-31.5 1.2-0.968 2.41-1.94 3.6-2.92 9.71-7.92 20.2-14.5 30.9-21.1 2.1-1.31 4.19-2.62 6.28-3.95 12.6-7.89 25.7-14.5 39.2-20.6 0.765-0.347 1.53-0.694 2.32-1.05 13-5.86 26.2-10.7 39.8-15 1.96-0.619 3.92-1.25 5.88-1.9 9.34-3.01 18.8-5.09 28.4-7.09 0.834-0.175 1.67-0.35 2.53-0.53 13.3-2.78 26.6-5.11 40.1-6.41 0.802-0.0921 1.6-0.184 2.43-0.279 10.1-1.04 20.2-0.907 30.4-0.906z" fill="#007CFB"/>
<path transform="translate(1167,408)" d="m0 0 6 3v4c0.66-0.33 1.32-0.66 2-1-0.33-1.65-0.66-3.3-1-5 1.32 0.66 2.64 1.32 4 2v4h2c0.33 0.99 0.66 1.98 1 3 0.99-0.33 1.98-0.66 3-1 0.772 2.92 1.54 5.83 2.31 8.75 0.32 1.21 0.32 1.21 0.646 2.44 0.448 1.7 0.893 3.4 1.33 5.1 0.475 1.82 0.96 3.64 1.45 5.46 2.02 7.66 3.37 15.4 4.51 23.2 0.302 2.06 0.621 4.12 0.941 6.18 4.02 26.7 4.09 53.4 4.01 80.4-0.0127 5.03-0.0137 10.1-0.0161 15.1-0.00616 9.48-0.0225 19-0.0427 28.4-0.0225 10.8-0.0334 21.6-0.0434 32.4-0.0208 22.2-0.0558 44.4-0.101 66.6h-1c-0.99-6.93-1.98-13.9-3-21-0.66 0.66-1.32 1.32-2 2-0.66-0.33-1.32-0.66-2-1v-3c-0.908-0.0825-1.82-0.165-2.75-0.25-3.71-0.856-4.75-1.99-7.25-4.75-0.99-0.33-1.98-0.66-3-1-3.73-6.75-4.11-13.8-3.94-21.4-0.0574-3.33-0.252-4.91-2.06-7.62 0.99-0.99 0.99-0.99 2-2 0.326-2.93 0.0653-4.83-1-7.59-1.26-4.31-1.3-8.19-1.25-12.7 0.00604-0.848 0.0121-1.7 0.0183-2.57 0.112-7.05 1.12-13.3 3.07-20.1 0.422-1.47 0.422-1.47 0.852-2.98 0.272-0.884 0.544-1.77 0.824-2.68 0.654-2.33 0.654-2.33 0.0271-4.16-0.736-3.12-0.669-6.07-0.672-9.28-9.57e-4 -0.671-0.00191-1.34-0.0029-2.03-6.79e-4 -1.41 0.00115-2.83 0.00534-4.24 0.00534-2.15 4.9e-5 -4.31-0.00635-6.46 6.61e-4 -1.38 0.00194-2.76 0.00391-4.13 0.00113-1.25 0.00226-2.49 0.00342-3.78 0.113-2.92 0.451-5.52 1.13-8.35h-2c0.186-0.578 0.371-1.15 0.562-1.75 0.492-2.53 0.0724-3.78-0.562-6.25-0.146-1.52-0.27-3.04-0.375-4.56-0.537-5.56-1.32-11.3-3.62-16.4-1.31-0.711-2.64-1.38-4-2-0.625-3.06-0.625-3.06-1-6-0.66-0.33-1.32-0.66-2-1 0.66-1.32 1.32-2.64 2-4-0.66-0.33-1.32-0.66-2-1 0.464-1.18 0.464-1.18 0.938-2.38 2.23-7.59 2.12-15.2 2.02-23.1 0.0416-3.77 0.343-7.47 0.664-11.2 0.454-6.07 0.288-11.9-0.312-18-0.0656-0.754-0.131-1.51-0.199-2.29-0.57-4.92-2-7.3-5.11-11-0.391-2.68-0.391-2.68-0.25-5.31 0.0361-0.883 0.0722-1.77 0.109-2.68 0.0464-0.664 0.0928-1.33 0.141-2.01h5v-11z" fill="#007CFB"/>
<path transform="translate(1341,807)" d="m0 0h2c0.638 2.04 1.26 4.08 1.88 6.12 0.348 1.14 0.696 2.27 1.05 3.45 3.49 13.4 3.35 26.9 3.3 40.7-5.65e-4 2.22-2.46e-4 4.44 8.85e-4 6.66 5.71e-4 5.98-0.0111 12-0.0251 18-0.0126 6.27-0.0137 12.5-0.0161 18.8-0.0055 10.5-0.018 21-0.0359 31.5-0.0184 10.8-0.0325 21.6-0.041 32.5-7.88e-4 1-7.88e-4 1-0.00159 2.03-0.00261 3.35-0.00514 6.71-0.00762 10.1-0.0209 27.8-0.056 55.5-0.101 83.3-2.31-0.66-4.62-1.32-7-2-0.33 0.99-0.66 1.98-1 3-0.33-0.99-0.66-1.98-1-3h-3c-0.33 0.66-0.66 1.32-1 2v-11c-0.66-0.33-1.32-0.66-2-1h2c-0.0303-0.589-0.0606-1.18-0.0918-1.78-0.138-2.72-0.273-5.43-0.408-8.15-0.0715-1.39-0.0715-1.39-0.145-2.81-0.219-4.45-0.374-8.87-0.324-13.3 0.259-3.72 0.259-3.72-1.03-5.93-0.0703-1.87-0.0843-3.75-0.0625-5.62 0.00902-1 0.018-2.01 0.0273-3.04 0.0116-0.771 0.0232-1.54 0.0352-2.34h-2c-0.33-3.3-0.66-6.6-1-10h-3v5h-2c0.33-1.65 0.66-3.3 1-5-1.32-0.33-2.64-0.66-4-1 0.309-0.825 0.619-1.65 0.938-2.5 1.18-3.89 1.64-7.46 2.06-11.5h2c0.144-0.949 0.289-1.9 0.438-2.88 0.562-3.12 0.562-3.12 1.56-5.12h2c0.33 1.65 0.66 3.3 1 5 0.66-1.65 1.32-3.3 2-5h2c-0.33-3.3-0.66-6.6-1-10-2.36 2.36-2.49 3.78-3 7h-1c-0.116-0.59-0.232-1.18-0.351-1.79-0.527-2.68-1.06-5.35-1.59-8.02-0.182-0.929-0.365-1.86-0.553-2.81-0.266-1.34-0.266-1.34-0.537-2.71-0.244-1.23-0.244-1.23-0.492-2.49-0.477-2.34-0.477-2.34-1.48-5.18-0.66-0.33-1.32-0.66-2-1-0.874-2.03-1.53-4.09-2.22-6.19-0.635-2.01-0.635-2.01-2.78-2.81-0.414-2.94-0.414-2.94-0.625-6.56-0.112-1.8-0.112-1.8-0.227-3.63-0.049-0.927-0.098-1.85-0.148-2.81h-3v-2c-0.66-0.33-1.32-0.66-2-1 0-4 0-4 0.558-6.44 0.494-2.86 0.201-4.69-0.484-7.5-0.22-0.913-0.44-1.83-0.666-2.77-0.238-0.942-0.476-1.88-0.721-2.85-0.339-1.42-0.339-1.42-0.686-2.87-1.16-4.98-1.16-4.98-3.08-9.7-1.33-2.72-0.917-4.84-0.605-7.81 0.149-1.53 0.149-1.53 0.301-3.09 0.35-2.69 0.815-5.32 1.39-7.97h3v-2h2v-2h2c-0.0464-0.746-0.0928-1.49-0.141-2.26 0.155-3.02 0.724-4.09 2.39-6.55 2.52-4.29 3.93-8.54 5.19-13.3 0.282-1 0.282-1 0.569-2.03 1.22-4.93 0.582-8.1-1.01-12.8-0.268-2.08-0.48-4.16-0.625-6.25-0.0748-1.02-0.15-2.03-0.227-3.08-0.105-1.89-0.148-3.78-0.148-5.67 2.05-0.228 4.1-0.456 6.15-0.684 1.86-0.135 1.86-0.135 2.85-1.32 1.52-0.0718 3.04-0.0839 4.56-0.0625 0.826 0.00902 1.65 0.018 2.5 0.0273 0.638 0.0116 1.28 0.0232 1.93 0.0352v-4z" fill="#007CFB"/>
<path transform="translate(758,1061)" d="m0 0c2.78 2.65 4.9 5.55 7.11 8.67 5.2 6.4 11 11.1 18 15.5 0.777 0.507 1.55 1.01 2.35 1.54 2.81 1.83 5.61 3.66 8.44 5.46 4.03 2.6 4.03 2.6 5.14 4.82 0.094 1.43 0.126 2.86 0.127 4.29 0.00282 0.9 0.00564 1.8 0.00854 2.73-0.00202 0.99-0.00405 1.98-0.00613 3 0.00175 1.04 0.0035 2.08 0.00531 3.15 0.00442 3.46 0.00148 6.91-0.00189 10.4 6.73e-4 2.4 0.00164 4.8 0.0029 7.2 0.00148 5.04-6.77e-4 10.1-0.00534 15.1-0.00568 6.45-0.00243 12.9 0.00357 19.3 0.00362 4.96 0.00246 9.92-1.28e-4 14.9-6.66e-4 2.38 1.48e-4 4.75 0.00248 7.13 0.00255 3.33-0.00135 6.66-0.0069 10 0.00202 0.978 0.00405 1.96 0.00613 2.96-0.0165 5.37-0.35 10.5-1.14 15.8-0.99-0.99-0.99-0.99-2-2v-4h-4c-1.75-1.5-1.75-1.5-3-3v3h-2c-0.495-0.99-0.495-0.99-1-2-0.99-0.33-1.98-0.66-3-1v2h3v3c-3.88-0.875-3.88-0.875-5-2-0.0723-1.85-0.0838-3.71-0.0625-5.56 0.00902-1.01 0.018-2.02 0.0273-3.07 0.0116-0.782 0.0232-1.56 0.0352-2.37 1.67 1.67 3.33 3.33 5 5-0.33-3.3-0.66-6.6-1-10h-2c-1.83-7.11-2.09-13.6-1.68-20.9-0.0727-3.15-0.0727-3.15-1.97-5.47-2.84-1.97-4.67-2.22-8.1-2.38-1.48-0.0851-1.48-0.0851-2.98-0.172-0.748-0.0258-1.5-0.0516-2.27-0.0781v-2h-3v-21h4v-6c1.49-0.495 1.49-0.495 3-1 0.66 0.33 1.32 0.66 2 1 1.49-0.99 1.49-0.99 3-2 0.514-2.72 0.803-5.24 1-8 0.0915-1.13 0.183-2.26 0.277-3.42 0.254-3.19 0.494-6.39 0.723-9.58h-2c-0.841-1.6-1.67-3.21-2.5-4.81-0.696-1.34-0.696-1.34-1.41-2.71-1.09-2.48-1.09-2.48-1.09-5.48h-2c-0.504-1.29-1-2.58-1.5-3.88-0.278-0.719-0.557-1.44-0.844-2.18-0.656-1.95-0.656-1.95-0.656-3.95h-2c-1.39-3.9-2-6.88-2-11 0.99 0.33 1.98 0.66 3 1v4h3c-2.37-5.59-4.98-10.9-8.05-16.2-0.953-1.85-0.953-1.85-0.953-3.85z" fill="#007CFB"/>
<path transform="translate(595,490)" d="m0 0c0.66 0.99 1.32 1.98 2 3 0.33-0.66 0.66-1.32 1-2h3c0.0271 2.71 0.0469 5.42 0.0625 8.12 0.00838 0.761 0.0168 1.52 0.0254 2.3 0.00483 1.12 0.00483 1.12 0.00977 2.27 0.00786 1.02 0.00786 1.02 0.0159 2.06-0.114 2.24-0.114 2.24-0.618 4.79-0.717 4.98-0.573 9.9-0.527 14.9 0.0116 2.62 0.0212 5.24 0.0273 7.86 0.00187 0.732 0.00373 1.46 0.00565 2.22 0.0172 11.1-0.112 22.2-0.22 33.2-0.0111 1.15-0.0222 2.3-0.0336 3.48-0.0688 7.13-0.14 14.3-0.211 21.4-0.0614 6.14-0.121 12.3-0.181 18.4-0.117 12-0.236 23.9-0.355 35.9-2-1-2-1-3.12-3.79-1.43-5.46-1.09-11.1-1.01-16.7 0.00902-1.11 0.018-2.23 0.0273-3.37 0.0234-2.73 0.0562-5.46 0.0977-8.19-0.683 8.35-1.15 16.6-1 25-0.66-0.33-1.32-0.66-2-1-1.74-6.56-2.19-12.9-1.31-19.6 0.408-2.88 0.408-2.88 0.312-5.44-2.28-2.56-2.28-2.56-5-4v-4c-0.66-0.33-1.32-0.66-2-1 0.144-0.701 0.289-1.4 0.438-2.12 0.577-2.95 1.08-5.91 1.56-8.88h-2v6c-1.49 0.495-1.49 0.495-3 1 0.186-0.639 0.371-1.28 0.562-1.94 0.144-0.681 0.289-1.36 0.438-2.06-0.33-0.33-0.66-0.66-1-1 0.287-2.01 0.619-4.01 1-6h-1c-0.33 1.98-0.66 3.96-1 6-6.93-10.4-5.87-28.8-5-41 1.01-2.43 1.01-2.43 2-4 0.66 1.32 1.32 2.64 2 4 2.42-2.26 3.87-4.05 4.34-7.38 0.071-4.76-0.454-8.23-2.34-12.6 0.151-0.709 0.302-1.42 0.457-2.15 0.558-2.93 0.507-5.6 0.377-8.57-0.262-6.53-0.181-11.4 4-16.7 1.55-2.04 1.68-4.06 2.16-6.54 0.701-0.681 1.4-1.36 2.12-2.06 0.619-0.639 1.24-1.28 1.88-1.94-0.247-0.99-0.247-0.99-0.5-2-0.247-0.99-0.247-0.99-0.5-2 1.94-2.25 1.94-2.25 4-4z" fill="#007CFB"/>
<path transform="translate(570 1e3)" d="m0 0 1 2c1.65-0.66 3.3-1.32 5-2v2h2v2h3c0.33-0.66 0.66-1.32 1-2 1.32 0.66 2.64 1.32 4 2 0.33-0.66 0.66-1.32 1-2 1.65 0.99 3.3 1.98 5 3-0.66 2.31-1.32 4.62-2 7h-3v6h2v4c2.64 0.33 5.28 0.66 8 1v3h-2v6h4v4h-2v-2h-9c0-4.08 0.807-7.12 2-11h-2v-2c-2.97-0.33-5.94-0.66-9-1v6c-1.65 0.33-3.3 0.66-5 1l1 4h-7c0.0206 0.804 0.0412 1.61 0.0625 2.44-0.0625 2.56-0.0625 2.56-1.06 3.56-1.67 0.0406-3.33 0.0427-5 0v2h-4v3h-3c-0.33 1.32-0.66 2.64-1 4-1.98 0.495-1.98 0.495-4 1v3h-3v-2h-2v2h-3v-2h-6c-0.268-0.804-0.536-1.61-0.812-2.44-0.392-0.846-0.784-1.69-1.19-2.56-0.99-0.33-1.98-0.66-3-1-1.62-2.5-1.62-2.5-3-5-0.33-0.33-0.66-0.66-1-1-0.0721-1.69-0.0839-3.38-0.0625-5.06 0.00902-0.919 0.018-1.84 0.0273-2.79 0.0116-0.71 0.0232-1.42 0.0352-2.15h2v-2h2v-8c0.639-0.124 1.28-0.247 1.94-0.375 0.681-0.206 1.36-0.413 2.06-0.625 0.33-0.66 0.66-1.32 1-2h4v-4c1.11-0.309 2.23-0.619 3.38-0.938 3.42-0.886 3.42-0.886 5.62-2.06v2c1.65-0.66 3.3-1.32 5-2v2c3.07-0.0709 6.01-0.253 9-1 1.88-2.36 1.88-2.36 3-5 2.19-1.31 2.19-1.31 4-2z" fill="#007CFB"/>
<path transform="translate(1155,857)" d="m0 0c4.07 0.766 8.11 1.56 12 3 0.99 1.49 0.99 1.49 2 3 3.11 0.805 3.11 0.805 6.62 1.19 1.19 0.159 2.38 0.317 3.6 0.48 1.37 0.164 1.37 0.164 2.77 0.332v2h8v5c1.05-0.0412 2.1-0.0825 3.19-0.125 3.55 0.116 5.66 0.597 8.81 2.12v3h-4c-0.33 2.31-0.66 4.62-1 7-2.97 0.66-5.94 1.32-9 2v4l2 1h-2c0.495 2.48 0.495 2.48 1 5-3.88 1.77-7.26 2.39-11.5 2.69-1.1 0.0864-2.21 0.173-3.34 0.262-2.91 0.0469-5.34-0.25-8.16-0.949v-3h-4v-2h-8c-3-5.75-3-5.75-3-8-0.99-0.33-1.98-0.66-3-1-0.914-2.87-0.914-2.87-1.62-6.44-0.807-4.41-0.807-4.41-2.38-8.56 0.0156-2.06 0.0156-2.06 0.25-4.44 0.067-0.782 0.134-1.56 0.203-2.37 1.41-5.66 5.45-5.86 10.5-5.19z" fill="#007CFB"/>
<path transform="translate(672,1078)" d="m0 0c3.3 0.66 6.6 1.32 10 2v2h3c0.0606 0.759 0.121 1.52 0.184 2.3 0.126 1.49 0.126 1.49 0.254 3.01 0.0812 0.986 0.162 1.97 0.246 2.99 0.235 2.79 0.235 2.79 1.32 5.7 0.66 0.33 1.32 0.66 2 1v2c1.32 0.33 2.64 0.66 4 1v6c-0.66 0.33-1.32 0.66-2 1-0.658 3.03-0.658 3.03-1 6h2c0.277 0.566 0.554 1.13 0.84 1.71 0.362 0.733 0.724 1.47 1.1 2.22 0.36 0.731 0.719 1.46 1.09 2.21 0.836 1.81 0.836 1.81 1.97 2.85 0.373 2.31 0.699 4.62 1 6.94 0.481 4.69 0.481 4.69 2 9.06h-2v6h5c0.0142 0.592 0.0284 1.18 0.043 1.79 0.36 5.96 1.48 8.07 5.96 12.2 0.312 2.81 0.312 2.81 0 5 2.97 0.495 2.97 0.495 6 1 0.155 0.959 0.155 0.959 0.312 1.94 0.227 0.681 0.454 1.36 0.688 2.06 0.99 0.33 1.98 0.66 3 1-1.98 0.495-1.98 0.495-4 1-0.25 2.92-0.25 2.92 0 6 0.99 0.66 1.98 1.32 3 2-0.66 3.63-1.32 7.26-2 11-0.969 0.289-1.94 0.578-2.94 0.875-3.17 0.767-3.17 0.767-4.06 3.12-1.32-0.33-2.64-0.66-4-1v-8h2c0.33-3.63 0.66-7.26 1-11-1.32-0.33-2.64-0.66-4-1l-1 4c-2-1.25-2-1.25-4-3v-4h-3v-2h3v-3h-3v-2h7v-6h-5v2h-2c-3-4.38-3-4.38-3-7-1.49-0.495-1.49-0.495-3-1v-5c-1.49-0.495-1.49-0.495-3-1h3v-4h-3v-2c-3.47 0.495-3.47 0.495-7 1v-6h3v-2h-4v-2h3c0.33-0.66 0.66-1.32 1-2-1.32-0.33-2.64-0.66-4-1v-9h-2v-2h-2c0.0206-0.722 0.0412-1.44 0.0625-2.19 0.02-2.78 0.02-2.78-0.562-5.31-0.513-2.56-0.575-4.89-0.5-7.5h-4c-0.33-1.32-0.66-2.64-1-4h4c-0.0232-0.568-0.0464-1.14-0.0703-1.72-0.122-5.2 0.393-9.35 2.07-14.3-0.99-0.33-1.98-0.66-3-1v-1z" fill="#007CFB"/>
<path transform="translate(865,1086)" d="m0 0h4v2c-0.516 0.412-1.03 0.825-1.56 1.25-0.474 0.578-0.949 1.15-1.44 1.75 0.233 3.15 0.233 3.15 1 6 0.99-0.33 1.98-0.66 3-1 1.2 2.41 1.1 3.95 1.06 6.62-0.00902 0.817-0.018 1.63-0.0273 2.48-0.0116 0.626-0.0232 1.25-0.0352 1.9h2c-0.427 2.48-0.718 3.73-2.56 5.5-1.9 1.64-1.9 1.64-1.44 5.5-0.99-0.33-1.98-0.66-3-1-0.0909 0.957-0.0909 0.957-0.184 1.93-0.0838 0.826-0.168 1.65-0.254 2.5-0.0812 0.824-0.162 1.65-0.246 2.5-0.316 2.07-0.316 2.07-1.32 3.07-0.321 1.58-0.607 3.16-0.875 4.75-0.758 3.95-1.56 7.05-4.12 10.2h-2v33h-2c-0.66-7.59-1.32-15.2-2-23h-1c-0.33 2.64-0.66 5.28-1 8h-1c-0.907-7.5-1.17-14.9-1.2-22.5-0.0057-1.16-0.0114-2.31-0.0173-3.5-0.00939-2.42-0.016-4.85-0.0198-7.27-0.0098-3.72-0.0409-7.43-0.0723-11.2-0.00652-2.36-0.0118-4.72-0.0156-7.08-0.0123-1.11-0.0247-2.22-0.0374-3.37 3e-3 -1.03 6e-3 -2.06 0.00909-3.12-0.00365-0.905-0.00729-1.81-0.011-2.74 0.445-2.79 1.17-3.59 3.37-5.31 2.02-1.25 4.06-2.46 6.12-3.62 3.65-1.89 3.65-1.89 6.88-4.38z" fill="#007CFB"/>
<path transform="translate(890,989)" d="m0 0h2c2.3 2.56 3 3.48 3 7 1.32-0.99 2.64-1.98 4-3 1.88 0.688 1.88 0.688 4 2 0.697 1.65 1.36 3.32 2 5 0.67 0.604 1.34 1.21 2.03 1.83 2.43 2.67 2.48 3.92 2.51 7.48 0.0232 1.01 0.0464 2.02 0.0703 3.06 0.00773 1.57 0.00773 1.57 0.0156 3.18 0.0255 2.08 0.059 4.17 0.102 6.25 0.00596 0.922 0.0119 1.84 0.0181 2.8 0.0972 2.65 0.0972 2.65 2.26 5.39 0.125 3.19 0.125 3.19 0 6-0.99-0.33-1.98-0.66-3-1-0.0809 1.79-0.139 3.58-0.188 5.38-0.0348 0.998-0.0696 2-0.105 3.02 0.0967 0.859 0.193 1.72 0.293 2.6 0.99 0.66 1.98 1.32 3 2-5.62 3-5.62 3-9 3v6c-3-1-3-1-5-2 0.523 2.76 1.11 5.33 2 8-0.996 2.26-0.996 2.26-2.44 4.69-0.473 0.808-0.946 1.62-1.43 2.45-0.373 0.615-0.745 1.23-1.13 1.86h-4c-0.33 1.65-0.66 3.3-1 5-0.33-0.66-0.66-1.32-1-2-1.49 0.99-1.49 0.99-3 2v3h-2v-5c-3.12 0.646-3.12 0.646-4 3h-2c-0.33 0.99-0.66 1.98-1 3-0.66-0.33-1.32-0.66-2-1 2.54-4.01 5.26-7.57 8.44-11.1 11.9-14.6 16-33.5 14.6-51.9-1.26-9.93-4.09-18.8-8-28z" fill="#007CFB"/>
<path transform="translate(1215,954)" d="m0 0h3v7l2 1h-4v6h2v3h-2c0.0722 1.11 0.144 2.22 0.219 3.36 0.0938 1.46 0.188 2.93 0.281 4.39 0.0477 0.73 0.0954 1.46 0.145 2.21 0.214 3.36 0.355 6.67 0.355 10h-2v-5h-3v12h-2v5h-2c0.99 5.45 0.99 5.45 2 11h3v-5h1v11c-2.47 0.495-2.47 0.495-5 1v-2h-4v5h-1v-6c-1.98 0.495-1.98 0.495-4 1v7h-4c0.0232 0.759 0.0464 1.52 0.0703 2.3 0.018 0.994 0.0361 1.99 0.0547 3.01 0.0232 0.986 0.0464 1.97 0.0703 2.99-0.195 2.7-0.195 2.7-2.2 5.7v-5c-1.98 0.495-1.98 0.495-4 1 0.482-5.31 1.51-9.82 3.31-14.8 0.835-2.42 0.835-2.42 1.19-6.05 0.5-3.12 0.5-3.12 1.88-5 1.62-1.12 1.62-1.12 4.62-2.12 1.03-2.79 1.03-2.79 1.69-6.06 0.377-1.66 0.377-1.66 0.762-3.35 0.182-0.855 0.364-1.71 0.551-2.59h2c-0.0464-1.3-0.0928-2.6-0.141-3.95-0.0375-1.73-0.0739-3.45-0.109-5.18-0.0503-1.28-0.0503-1.28-0.102-2.59-0.088-5.72 0.713-8.65 4.35-13.3 0.849-2.03 0.849-2.03 1.25-3.88 0.247-1.03 0.495-2.06 0.75-3.12h2c-0.0206-1.09-0.0412-2.19-0.0625-3.31 0.0625-3.69 0.0625-3.69 1.06-6.69z" fill="#007CFB"/>
<path transform="translate(631,1019)" d="m0 0c0.99 0.33 1.98 0.66 3 1v2h-2v9h-2v3h-4v4h-2c0.33 2.64 0.66 5.28 1 8h-3c-0.66 3.63-1.32 7.26-2 11h-4v9h-4v12h-2v-4c-0.66-0.33-1.32-0.66-2-1l1-6h-3v-9c-1.32-0.33-2.64-0.66-4-1-0.197-1.42-0.382-2.83-0.562-4.25-0.104-0.789-0.209-1.58-0.316-2.39-0.123-2.4 0.033-4.11 0.879-6.36 0.701-0.268 1.4-0.536 2.12-0.812 3-1.24 4.08-2.29 6.25-4.62 3.32-3.48 6.06-5.07 10.6-6.56h3c0.33-1.32 0.66-2.64 1-4h5c-0.0206-1.11-0.0412-2.23-0.0625-3.38 0.0625-3.62 0.0625-3.62 1.06-5.62z" fill="#007CFB"/>
<path transform="translate(1146,333)" d="m0 0c3.83 4.4 6.55 9.21 9.31 14.3 0.467 0.817 0.935 1.63 1.42 2.47 3.14 5.82 3.36 8.78 2.27 15.2 0.906 3.42 0.906 3.42 2.44 6.5 0.473 1.04 0.946 2.08 1.43 3.16 0.559 1.16 0.559 1.16 1.13 2.34-1.93-0.316-1.93-0.316-4-1-1.12-2.94-1.12-2.94-2-6-0.66-0.66-1.32-1.32-2-2v-3h-2c1.65 3.96 3.3 7.92 5 12h-2c0.66 1.65 1.32 3.3 2 5h-4c-0.33-2.31-0.66-4.62-1-7h-2c-0.33-1.65-0.66-3.3-1-5h-5c0.33-1.32 0.66-2.64 1-4-0.99-0.33-1.98-0.66-3-1-1.44-2.88-1.09-5.42-1.06-8.62 0.00902-1.19 0.018-2.38 0.0273-3.6 0.0116-0.915 0.0232-1.83 0.0352-2.77h-2v-2h-3v-11c0.99 0.33 1.98 0.66 3 1 0.33 2.64 0.66 5.28 1 8 0.66-0.66 1.32-1.32 2-2 0.66 0.33 1.32 0.66 2 1v-2h-3v-6c0.66-0.33 1.32-0.66 2-1 0.33-0.99 0.66-1.98 1-3z" fill="#007CFB"/>
<path transform="translate(300,1306)" d="m0 0h1c2.4 19.7 2.4 19.7 2 28-0.33 0.33-0.66 0.66-1 1 0.286 1.68 0.618 3.34 1 5l1-4c0.99 0.33 1.98 0.66 3 1 0.366 3.73 0.716 7.46 1.06 11.2 0.104 1.06 0.208 2.11 0.314 3.2 0.0935 1.02 0.187 2.04 0.283 3.1 0.089 0.937 0.178 1.87 0.27 2.84 0.0713 2.73-0.29 5.04-0.93 7.68-1.49 0.495-1.49 0.495-3 1-1.6 6.71-0.153 12.3 1.5 18.9 0.269 1.1 0.538 2.2 0.815 3.34 2.38 9.36 5.71 18 9.68 26.8 0.33 0.99 0.66 1.98 1 3 1.49 0.495 1.49 0.495 3 1v3c0.66 0.33 1.32 0.66 2 1 0.625 2.56 0.625 2.56 1 5h-3c-14.2-24.9-22.2-51.5-22.1-80.3-9.57e-4 -0.944-0.00191-1.89-0.0029-2.86-6.75e-4 -1.98 0.00113-3.96 0.00534-5.93 0.00537-3.01 2.7e-5 -6.02-0.00635-9.03 6.61e-4 -1.93 0.00194-3.87 0.00391-5.8-0.00202-0.89-0.00405-1.78-0.00613-2.7 0.0194-5.21 0.387-10.2 1.14-15.4z" fill="#007CFB"/>
<path transform="translate(1210,699)" d="m0 0c6.31 0.388 12 0.794 18 3 1.46 0.288 2.91 0.556 4.38 0.812 4.76 0.906 9.32 2.24 13.9 3.69 0.682 0.214 1.36 0.427 2.07 0.648 3.6 1.15 7.13 2.39 10.6 3.85 0.495 3.47 0.495 3.47 1 7-4.75 1.97-7.98 2.08-13 1-0.33-0.33-0.66-0.66-1-1-1.61-0.186-1.61-0.186-3.25-0.375-3.78-0.629-5.64-1.5-8.75-3.62-0.908-0.474-1.82-0.949-2.75-1.44-2.25-1.56-2.25-1.56-3.06-3.75-0.0619-0.598-0.124-1.2-0.188-1.81-1.13 0.0412-2.27 0.0825-3.44 0.125-4.71 0.0168-9.03-0.949-13.6-2.12v-2c0.66-0.33 1.32-0.66 2-1-0.99-0.33-1.98-0.66-3-1v-2z" fill="#007CFB"/>
<path transform="translate(482,1404)" d="m0 0h4c0.33 0.99 0.66 1.98 1 3v-3h4v4h4l1 4h5v6c1.98 0.66 3.96 1.32 6 2v2h-4v-2c-0.66 0.33-1.32 0.66-2 1v2c1.98 0.66 3.96 1.32 6 2v2h-11c-0.681 0.186-1.36 0.371-2.06 0.562-0.959 0.217-0.959 0.217-1.94 0.438-0.33-0.33-0.66-0.66-1-1-0.33 1.98-0.66 3.96-1 6-0.66-0.33-1.32-0.66-2-1v-3c-0.66-0.33-1.32-0.66-2-1v-2h-3v-3c0.99-0.33 1.98-0.66 3-1-0.99-0.33-1.98-0.66-3-1-0.33-5.61-0.66-11.2-1-17z" fill="#007CFB"/>
<path transform="translate(1305 1291)" d="m0 0c2.64 0.13 4.45 0.524 7 1.38 0.292 3.8-0.133 6.67-1.44 10.2-1.88 5.19-2.27 10.3-2.56 15.8-1.79 0.222-3.58 0.427-5.38 0.625-0.998 0.116-2 0.232-3.02 0.352-0.859 0.00773-1.72 0.0155-2.6 0.0234-2.43-2.43-2.3-3.1-2.31-6.44 0.147-7.26 1.24-21.7 10.3-21.9z" fill="#007FFC"/>
<path transform="translate(1234,880)" d="m0 0c2.39 1.46 3.78 2.39 4.75 5.06 0.603 7.08 0.29 13.9-0.75 20.9h-2v4h-10c0.33-0.66 0.66-1.32 1-2-0.0426-1.48-0.152-2.96-0.297-4.43-0.0709-0.878-0.142-1.76-0.215-2.66-0.158-1.85-0.333-3.7-0.523-5.55-0.19-2.54-0.313-4.84 0.0352-7.36 2.42-2.51 2.42-2.51 5-4 0.33-0.66 0.66-1.32 1-2h2v-2z" fill="#007CFB"/>
<path transform="translate(1186,1300)" d="m0 0c2 3.75 2 3.75 2 6 1.28-0.0206 2.56-0.0412 3.88-0.0625 3.88-0.0625 3.88-0.0625 6.12 1.06v2c0.99 0.33 1.98 0.66 3 1h-3v2c-1.65-0.33-3.3-0.66-5-1v5h2v3h3v3h-4c0.0838 0.782 0.168 1.56 0.254 2.37 0.102 1.01 0.204 2.02 0.309 3.07 0.104 1.01 0.209 2.02 0.316 3.06 0.04 0.826 0.0799 1.65 0.121 2.5-1 1-1 1-4.56 1.06-1.13-0.0206-2.27-0.0412-3.44-0.0625-0.33 2.31-0.66 4.62-1 7h-2c-0.178-5 0.177-8.8 1.55-13.6 0.951-5.04 0.586-10.3 0.445-15.4-0.66-0.33-1.32-0.66-2-1 0.33-0.33 0.66-0.66 1-1 0.233-1.68 0.413-3.37 0.562-5.06 0.0838-0.919 0.168-1.84 0.254-2.79 0.0606-0.71 0.121-1.42 0.184-2.15z" fill="#007CFB"/>
<path transform="translate(1121,309)" d="m0 0c0.99 0.33 1.98 0.66 3 1 1.19 2.56 1.19 2.56 2 5v-6c2 3 2 3 2 5h2v3h3c-0.474-0.763-0.949-1.53-1.44-2.31-1.56-2.69-1.56-2.69-2.56-5.69 3.24 1.36 4.73 2.63 6.54 5.62 0.434 0.706 0.868 1.41 1.31 2.14 0.439 0.737 0.878 1.47 1.33 2.23 0.451 0.737 0.901 1.47 1.37 2.23 3.16 5.2 3.16 5.2 4.45 7.77-3.25 0.279-4.73 0.167-7.56-1.56-2.31-1.7-2.31-1.7-4.75-1.12-0.557 0.227-1.11 0.454-1.69 0.688v2h3c-0.33 0.99-0.66 1.98-1 3l-4-1c-0.33-1.65-0.66-3.3-1-5l-4-1c-0.33-1.32-0.66-2.64-1-4-1.32-0.33-2.64-0.66-4-1h3v-4c-0.99-0.33-1.98-0.66-3-1h3v-6z" fill="#007CFB"/>
<path transform="translate(649,1122)" d="m0 0c0.99 0.33 1.98 0.66 3 1v2c1.32-0.33 2.64-0.66 4-1h-2c0.33-0.66 0.66-1.32 1-2 0.66 0.33 1.32 0.66 2 1v2h3v-2h2v3h5v2h5c0.382 1.66 0.714 3.32 1 5-0.33 0.33-0.66 0.66-1 1 0.33 1.32 0.66 2.64 1 4-4.95-0.33-9.9-0.66-15-1v-2h-4v-4h-3v-2h-2c0.33-0.66 0.66-1.32 1-2 0.66 0.33 1.32 0.66 2 1v2c0.66-0.33 1.32-0.66 2-1v-3h-3v-2h-2v-2z" fill="#007CFB"/>
<path transform="translate(1180,1223)" d="m0 0c2.88 0.32 4.27 1.2 6.62 2.94 3.19 4.11 3.72 7.99 4.38 13.1-2.31 0.33-4.62 0.66-7 1v2h-2c0.33 2.64 0.66 5.28 1 8-1.65-0.33-3.3-0.66-5-1-0.0585-3.21-0.0938-6.42-0.125-9.62-0.0251-1.36-0.0251-1.36-0.0508-2.74-0.0362-4.96 0.211-8.98 2.18-13.6z" fill="#007CFB"/>
<path transform="translate(647,334)" d="m0 0c0.33 0.66 0.66 1.32 1 2 1.65-0.66 3.3-1.32 5-2v2h3v5h-2l2 1c-0.488 6.05-0.488 6.05-1 8-0.99 0.66-1.98 1.32-3 2v-4h2v-2h-3c-0.495 0.495-0.99 0.99-1.5 1.5-0.495 0.495-0.99 0.99-1.5 1.5h-3c-0.33 0.66-0.66 1.32-1 2l-4-2c-0.33 0.66-0.66 1.32-1 2-0.778-3.41-1.1-6.51-1-10h3v-2c1.96-1.71 3.96-3.38 6-5z" fill="#007CFB"/>
<path transform="translate(1116,292)" d="m0 0c3.26 3.03 5.54 6.31 8 10 0.66 0.33 1.32 0.66 2 1-0.33 1.98-0.66 3.96-1 6h-2v-3c-0.99 0.33-1.98 0.66-3 1v7h-2v-3h-6v-3c0.66-0.33 1.32-0.66 2-1-0.66-0.474-1.32-0.949-2-1.44-2.9-3.71-2.35-7.02-2-11.6h2c0.33 0.66 0.66 1.32 1 2h2c0.33-1.32 0.66-2.64 1-4z" fill="#007CFB"/>
<path transform="translate(514,328)" d="m0 0c1.29 3.88 1.06 7.11 0 11-1.44 2.69-2.99 4.65-5 7h-2v4c-5.75 1-5.75 1-8 1 0.495-1.49 0.495-1.49 1-3 1.65-0.33 3.3-0.66 5-1-1.98-0.33-3.96-0.66-6-1 0.875-4.75 0.875-4.75 2-7h6c0.268-0.598 0.536-1.2 0.812-1.81 1.19-2.19 2.45-3.45 4.19-5.19 1.18-2.1 1.18-2.1 2-4z" fill="#007CFB"/>
<path transform="translate(1335,1404)" d="m0 0h3c-1.15 7.61-5 14-8.88 20.5-0.422 0.721-0.843 1.44-1.28 2.18-2.73 4.62-5.67 8.99-8.85 13.3-0.66-0.66-1.32-1.32-2-2 0.309-0.536 0.619-1.07 0.938-1.62 1.24-2.77 1.65-5.38 2.06-8.38 0.99-0.33 1.98-0.66 3-1 1.12-2.34 1.12-2.34 2-5 1.31-2.98 2.72-4.72 5-7 2.69-3.64 4.47-6.47 5-11z" fill="#007FFC"/>
<path transform="translate(1218,916)" d="m0 0h4c0.0735 1.28 0.0735 1.28 0.148 2.59 0.0748 1.1 0.15 2.21 0.227 3.35 0.0696 1.1 0.139 2.2 0.211 3.34 0.137 0.898 0.273 1.8 0.414 2.72l2 1h-5c0.46 4.14 0.855 6.25 4 9 0.33 0.99 0.66 1.98 1 3-1.65 0.33-3.3 0.66-5 1-0.33 3.3-0.66 6.6-1 10h-1v-30c-0.66-0.33-1.32-0.66-2-1 0.66-1.65 1.32-3.3 2-5z" fill="#007CFB"/>
<path transform="translate(659,346)" d="m0 0 2 1c0 4.87-0.643 7.6-4.06 11.1-0.639 0.619-1.28 1.24-1.94 1.88-0.33 0.99-0.66 1.98-1 3h-3v-3h-2v3h-3c0.186-0.577 0.371-1.15 0.562-1.75 0.617-2.24 0.617-2.24-0.188-4.31-0.124-0.639-0.247-1.28-0.375-1.94 1.44-1.75 1.44-1.75 3-3 0.99 0.33 1.98 0.66 3 1 2.17-0.667 2.17-0.667 4-2 0.33-0.99 0.66-1.98 1-3h2v-2z" fill="#007CFB"/>
<path transform="translate(597 1490)" d="m0 0c2.95 0.281 5.83 0.287 8.79 0.254 4.43-0.0453 8.52 0.209 12.9 1v1c-7.92 0.495-7.92 0.495-16 1v3h-13c0.66-0.66 1.32-1.32 2-2-0.959-2.33-0.959-2.33-4-4 3.41-1.14 5.82-0.706 9.33-0.254z" fill="#007CFB"/>
<path transform="translate(683,1040)" d="m0 0h3c1.33 3.98 1.07 7.85 1 12-1.98 0.33-3.96 0.66-6 1-3-4.75-3-4.75-3-7-0.66-0.33-1.32-0.66-2-1h3c0.33-0.99 0.66-1.98 1-3h3v-2z" fill="#007CFB"/>
<path transform="translate(1037,451)" d="m0 0h2c4.51 11.3 8.88 23.7 8 36h-2c-0.136-0.644-0.272-1.29-0.411-1.95-0.629-2.98-1.27-5.95-1.9-8.92-0.213-1.01-0.427-2.03-0.646-3.07-1.24-5.77-2.66-11.4-4.48-17-0.562-2.05-0.562-2.05-0.562-5.05z" fill="#007CFB"/>
<path transform="translate(1049,534)" d="m0 0h2c1.24 6.59 1.03 13 0.879 19.7-0.0236 1.21-0.0472 2.42-0.0715 3.67-0.0763 3.85-0.16 7.7-0.245 11.6-0.0533 2.62-0.106 5.24-0.158 7.85-0.129 6.4-0.264 12.8-0.404 19.2h-1c-0.33-20.5-0.66-40.9-1-62z" fill="#007CFB"/>
<path transform="translate(1309,1048)" d="m0 0c0.33 0.99 0.66 1.98 1 3h2c-0.153 1.28-0.307 2.55-0.465 3.87-0.562 5.06-0.857 10.1-1.1 15.2-0.0432 0.866-0.0864 1.73-0.131 2.62-0.105 2.1-0.206 4.21-0.307 6.31-2.35-3.52-2.25-5-2.23-9.16 0.0029-1.81 0.0029-1.81 0.00586-3.65 0.0122-1.26 0.0245-2.52 0.0371-3.81 6.45e-4 -1.27 0.00129-2.53 0.00195-3.84 0.0454-9.4 0.0454-9.4 1.19-10.5z" fill="#007CFB"/>
<path transform="translate(300,1283)" d="m0 0h1c1.85 7.06 2.62 13.8 1 21-0.66 0.33-1.32 0.66-2 1-1.23-3.7-1.15-7.14-1.12-11-0.00387-0.724-0.00773-1.45-0.0117-2.2 0.0059-3.2 0.119-5.75 1.14-8.8z" fill="#007CFB"/>
<path transform="translate(833,154)" d="m0 0c0.33 1.32 0.66 2.64 1 4-1.07-0.206-2.14-0.412-3.25-0.625-3.55-0.709-3.55-0.709-5.59 0.625-2.97 1.38-5.17 0.976-8.41 0.625-1.08-0.111-2.16-0.222-3.27-0.336-1.23-0.143-1.23-0.143-2.48-0.289v-2c1.03 0.0412 2.06 0.0825 3.12 0.125 3.77 0.0709 3.77 0.0709 6.75-1.12 4.1-1.31 7.86-1.17 12.1-1z" fill="#007FFC"/>
<path transform="translate(795,1466)" d="m0 0h6c-0.33 2.97-0.66 5.94-1 9h-6c0.33-2.97 0.66-5.94 1-9z" fill="#007EFD"/>
<path transform="translate(1078,248)" d="m0 0c4.27 3.53 8.34 7.2 12.3 11.1 1.26 1.22 1.26 1.22 2.55 2.47 2.12 2.45 3.15 4.41 4.14 7.46-4.7-3.84-9.1-7.94-13.4-12.2-0.544-0.523-1.09-1.05-1.65-1.58-1.36-1.35-2.65-2.79-3.91-4.23v-3z" fill="#007CFB"/>
<path transform="translate(299,1259)" d="m0 0c1.49 0.99 1.49 0.99 3 2 0.277 2.71 0.372 5.17 0.312 7.88 0.00322 0.721 0.00645 1.44 0.00977 2.18-0.0384 3.79-0.213 6.73-2.32 9.94-0.973-4.86-1.12-9.45-1.06-14.4 0.00451-0.736 0.00902-1.47 0.0137-2.23 0.0117-1.8 0.0296-3.6 0.0488-5.39z" fill="#007CFB"/>
<path transform="translate(1037,1489)" d="m0 0h11c-0.33 0.99-0.66 1.98-1 3-2.31-0.33-4.62-0.66-7-1v2c-3.48 1.16-5.14 0.773-8.69 0.0625-0.994-0.195-1.99-0.389-3.01-0.59-0.759-0.156-1.52-0.312-2.3-0.473 0.66-0.66 1.32-1.32 2-2 2.16 0.0234 2.16 0.0234 4.62 0.375 1.23 0.166 1.23 0.166 2.48 0.336 0.626 0.0954 1.25 0.191 1.9 0.289v-2z" fill="#007CFB"/>
<path transform="translate(1226 709)" d="m0 0c0.804 0.309 1.61 0.619 2.44 0.938v2c-4.23 1.19-7.1 0.719-11.3-0.438-1.07-0.287-2.14-0.575-3.24-0.871-0.808-0.228-1.62-0.456-2.45-0.691v-2c4.31-2.15 10.2-0.252 14.6 1.06z" fill="#007CFB"/>
<path transform="translate(975 1066)" d="m0 0c1.45 0.0309 1.45 0.0309 2.94 0.0625 0.0425 2 0.0408 4 0 6-1 1-1 1-4.06 1.06-1.45-0.0309-1.45-0.0309-2.94-0.0625-0.0425-2-0.0408-4 0-6 1-1 1-1 4.06-1.06z" fill="#007FFC"/>
<path transform="translate(522,1397)" d="m0 0c-0.33 2.31-0.66 4.62-1 7h-6v4c0.66 0.33 1.32 0.66 2 1h-2v7h-1c-0.33-4.62-0.66-9.24-1-14h4c0.155-0.959 0.155-0.959 0.312-1.94 0.227-0.681 0.454-1.36 0.688-2.06 3-1 3-1 4-1z" fill="#007CFB"/>
<path transform="translate(1188,1036)" d="m0 0h2c0.124 0.969 0.247 1.94 0.375 2.94 0.206 1.01 0.412 2.02 0.625 3.06 0.66 0.33 1.32 0.66 2 1v3h-6c-0.33 0.99-0.66 1.98-1 3-0.167-4.92-0.248-8.5 2-13z" fill="#007CFB"/>
<path transform="translate(898,1046)" d="m0 0h1c0.331 4.8 0.433 7.16-1.81 11.5-0.722 0.825-1.44 1.65-2.19 2.5h-3c0-2 0-2 1-3-0.66-0.33-1.32-0.66-2-1 1.54-2.05 3.07-4.09 4.62-6.12 1.42-1.83 1.42-1.83 2.38-3.88z" fill="#007EFC"/>
<path transform="translate(1270,1302)" d="m0 0c0.33 0.66 0.66 1.32 1 2 0.99-0.33 1.98-0.66 3-1v4h-4v4h-3c-0.33-2.64-0.66-5.28-1-8 1.32-0.33 2.64-0.66 4-1z" fill="#007FFC"/>
<path transform="translate(880,1454)" d="m0 0h2v2h15v2c-2.54 0.0272-5.08 0.0469-7.62 0.0625-1.07 0.0126-1.07 0.0126-2.16 0.0254-4.19 0.0192-8.09-0.261-12.2-1.09v-1h5v-2z" fill="#007CFB"/>
<path transform="translate(1295,735)" d="m0 0c3.21 1.38 5.05 2.92 7.25 5.62 0.781 0.947 0.781 0.947 1.58 1.91 0.58 0.723 0.58 0.723 1.17 1.46-3 0-3 0-5-1v5l2 1h-3c-0.121-0.759-0.242-1.52-0.367-2.3-0.168-0.994-0.335-1.99-0.508-3.01-0.162-0.986-0.325-1.97-0.492-2.99-0.514-2.9-0.514-2.9-2.63-5.7z" fill="#007CFB"/>
<path transform="translate(1181,1466)" d="m0 0v3c-2.47-0.99-2.47-0.99-5-2-0.33 0.66-0.66 1.32-1 2-2.47-0.99-2.47-0.99-5-2v-2c4-1.6 7.05-0.293 11 1z" fill="#007CFB"/>
<path transform="translate(635 1e3)" d="m0 0h5v3h3c-0.33 0.99-0.66 1.98-1 3-2.31-0.33-4.62-0.66-7-1v-5z" fill="#007CFB"/>
<path transform="translate(1184,1229)" d="m0 0c1.32 0.33 2.64 0.66 4 1 0.33 2.64 0.66 5.28 1 8h-3c-2.29-3.44-2.18-4.99-2-9z" fill="#007FFC"/>
<path transform="translate(1106,1435)" d="m0 0h9v2h2c-0.33 0.66-0.66 1.32-1 2-1.09-0.186-2.19-0.371-3.31-0.562-3.62-0.695-3.62-0.695-6.69 0.562v-4z" fill="#007CFB"/>
<path transform="translate(861,1111)" d="m0 0c1.32 0.99 2.64 1.98 4 3-0.309 0.536-0.619 1.07-0.938 1.62-1.24 2.77-1.65 5.38-2.06 8.38h-3c0.144-0.846 0.289-1.69 0.438-2.56 0.568-3.47 1.07-6.95 1.56-10.4z" fill="#007EFD"/>
<path transform="translate(1238,719)" d="m0 0c7.42 0.99 7.42 0.99 15 2-4.29 2.15-5.65 2.13-10.2 1.62-1.08-0.111-2.16-0.222-3.27-0.336-1.23-0.143-1.23-0.143-2.48-0.289 0.33-0.99 0.66-1.98 1-3z" fill="#007CFB"/>
<path transform="translate(1159 1442)" d="m0 0c3.06 0.188 3.06 0.188 5.06 2.19-0.969 0.289-1.94 0.578-2.94 0.875-3.17 0.767-3.17 0.767-4.06 3.12h-2c-0.0427-1.67-0.0406-3.33 0-5 1-1 1-1 3.94-1.19z" fill="#007FFC"/>
<path transform="translate(651,1490)" d="m0 0c2.34 0.287 4.67 0.619 7 1-0.33 0.66-0.66 1.32-1 2h-16v-1c0.957-0.0909 0.957-0.0909 1.93-0.184 1.24-0.126 1.24-0.126 2.5-0.254 0.824-0.0812 1.65-0.162 2.5-0.246 2.05-0.106 2.05-0.106 3.07-1.32z" fill="#007CFB"/>
<path transform="translate(323,1429)" d="m0 0h2c1.73 2.19 1.73 2.19 3.62 5 0.632 0.928 1.26 1.86 1.91 2.81 0.723 1.08 0.723 1.08 1.46 2.19-0.66 0.66-1.32 1.32-2 2-1.17-1.62-2.34-3.25-3.5-4.88-0.65-0.905-1.3-1.81-1.97-2.74-1.53-2.38-1.53-2.38-1.53-4.38z" fill="#007CFB"/>
<path transform="translate(1181,540)" d="m0 0h1v14c-0.99 0.495-0.99 0.495-2 1-1.52-10.6-1.52-10.6 1-15z" fill="#007FFC"/>
<path transform="translate(1048,509)" d="m0 0c2 1 2 1 3 3 0.0703 1.87 0.0843 3.75 0.0625 5.62-0.00902 1-0.018 2.01-0.0273 3.04-0.0116 0.771-0.0232 1.54-0.0352 2.34h-1v-6h-2v-8z" fill="#007CFB"/>
</svg>
